<?xml version="1.0" encoding="utf-8"?>
<!-- Generator: Adobe Illustrator 16.0.0, SVG Export Plug-In . SVG Version: 6.00 Build 0)  -->
<!DOCTYPE svg PUBLIC "-//W3C//DTD SVG 1.1//EN" "http://www.w3.org/Graphics/SVG/1.1/DTD/svg11.dtd">
<svg version="1.1" id="Layer_1" xmlns="http://www.w3.org/2000/svg" xmlns:xlink="http://www.w3.org/1999/xlink" x="0px" y="0px"
	 width="130.62px" height="100px" viewBox="0 0 130.62 100" enable-background="new 0 0 130.62 100" xml:space="preserve">
<g>
	<path d="M12.522,68.334c-1.133,0-2.492,0.86-2.492-16.134c0-22.387,2.356-21.571,3.127-21.571h11.737
		c8.021,0,9.245,3.716,9.245,6.617c0,4.985-5.167,7.885-5.167,9.29c0,1.586,7.296,5.256,7.296,13.051
		c0,4.441-2.674,8.747-10.106,8.747H12.522z M23.581,43.726c1.314-0.952,3.217-3.172,3.217-5.03c0-2.175-1.903-2.719-3.625-2.719
		c-4.486,0-6.526,1.949-6.526,9.019c0,0.906-0.09,2.084,1.178,2.084c0.544,0,1.722-0.499,2.447-0.997L23.581,43.726z M18.867,52.336
		c-1.224,0.68-1.949,0.952-1.949,2.447c0,6.889,1.722,7.75,5.438,7.75c3.263,0,6.571-1.27,6.571-4.804
		c0-3.218-3.988-7.75-5.211-7.75c-0.589,0-1.405,0.499-1.903,0.771L18.867,52.336z"/>
	<path d="M59.518,68.334c-0.408,0-1.722,0.136-1.722-0.544c0-1.27,3.49-5.801,3.49-10.967c0-2.04-1.949-2.811-3.988-2.811
		c-4.124,0-10.695,0.726-10.695,5.892c0,3.58,2.946,7.433,2.946,8.112c0,0.271-0.272,0.317-0.861,0.317h-6.48
		c-2.312,0-2.946-4.079-2.946-9.971c0-19.396,13.459-28.414,15.454-28.414c1.496,0,13.187,6.48,13.187,27.508
		c0,12.101-1.948,10.877-3.308,10.877H59.518z M47.599,48.212c0,0.544,0.317,0.861,0.861,0.861c0.815,0,5.211-1.178,9.2-1.178
		c1.586,0,2.311-0.227,2.311-1.496c0-2.81-3.354-8.701-5.076-8.701C52.448,37.699,47.599,44.904,47.599,48.212z"/>
	<path d="M83.9,36.067c-2.266,0-5.167,1.133-5.167,3.762c0,3.263,4.487,4.532,6.979,5.393c9.518,3.172,11.466,7.749,11.466,12.055
		c0,5.257-3.762,11.737-13.323,11.737c-6.436,0-12.962-3.444-12.962-10.65c0-3.852,2.312-6.117,2.765-6.117
		c0.771,0,0,9.199,9.744,9.199c3.443,0,6.435-1.495,6.435-4.306c0-3.308-4.078-4.667-6.707-5.483
		c-9.925-3.081-11.013-7.568-11.013-11.42c0-3.807,2.583-10.287,11.783-10.287c6.571,0,11.239,3.489,11.239,4.804
		c0,1.269-2.356,5.393-3.626,5.393C90.381,40.146,88.613,36.067,83.9,36.067z"/>
	<path d="M102.844,68.334c-2.401,0.091-1.677-1.496-1.903-10.695c0-6.073,2.493-27.01,3.807-27.01h17.856
		c0.543,0,2.175-0.136,2.175,0.771c0,0.362-2.9,6.707-3.489,6.707c-0.771,0-2.13-2.13-6.571-2.13c-3.127,0-6.436,1.858-6.436,6.208
		c0,0.952,0.182,2.583,1.45,2.583c1.45,0,4.668-2.13,8.475-2.13c0.544,0,2.039,0.182,2.039,0.952c0,0.045-2.537,7.433-3.081,7.433
		c-0.453,0-2.176-0.907-3.943-0.907c-2.311,0-5.664,1.676-5.664,6.164c0,3.625,1.903,6.254,5.71,6.254
		c4.486,0,7.251-2.991,8.339-2.991c0.68,0,3.716,7.659,3.716,8.112c0,0.86-1.133,0.68-1.677,0.68H102.844z"/>
</g>
<g>
	<polyline points="14.81,23.656 62.977,23.656 62.977,21.823 66.311,25.156 	"/>
	<polyline points="66.311,25.657 18.144,25.657 18.144,27.49 14.811,24.157 	"/>
</g>
<circle fill="none" cx="77.25" cy="81.407" r="8.417"/>
<g>
	<circle fill="#00AEEF" cx="114.515" cy="56.048" r="7.583"/>
	<g>
		<path d="M113.429,52.837c0,0.072-0.378,1.125-0.513,1.125c-0.171,0-0.333-0.306-0.828-0.306c-0.783,0-1.53,0.999-1.53,1.62
			c0,0.081,0.063,0.198,0.152,0.198c0.153,0,0.631-0.396,1.297-0.396c1.17,0,1.801,1.243,1.801,2.278
			c0,1.891-1.333,2.655-2.287,2.655c-1.296,0-2.341-1.053-2.341-3.438c0-2.593,1.261-4.133,3.16-4.133
			C112.529,52.44,113.429,52.521,113.429,52.837z M112.592,57.338c0-0.576-0.324-1.107-0.972-1.107c-0.631,0-1.126,0.478-1.126,1.09
			c0,0.567,0.433,1.188,1.035,1.188C112.205,58.509,112.592,57.959,112.592,57.338z"/>
		<path d="M116.854,60.012c-0.217,0-0.279-0.071-0.271-0.342c0-0.54,0.153-1.035,0.153-1.647c0-0.198-0.162-0.226-0.324-0.226
			c-0.63,0-1.44,0.298-1.665,0.298c-0.415,0-0.45-0.45-0.45-0.864c0-1.675,2.124-4.654,2.655-4.654h0.99
			c0.072,0,0.315,0,0.315,0.171c0,0.162-2.566,2.296-2.566,3.853c0,0.108,0.046,0.136,0.198,0.136c0.198,0,0.928-0.145,1.018-0.55
			c0.36-1.566,1.125-2.205,1.423-2.205c0.054,0,0.09,0.045,0.09,0.09c0,0.081-0.288,0.756-0.288,1.62
			c0,0.712,0.126,0.757,0.702,0.757c0.324,0,0.342-0.126,0.342,1.017c0,0.253-0.018,0.352-0.117,0.352
			c-0.171,0-0.45-0.09-0.666-0.09c-0.315,0-0.441,0.081-0.441,0.9c0,0.404,0.036,0.657,0.036,1.161
			C117.988,59.94,117.214,60.012,116.854,60.012z"/>
	</g>
</g>
</svg>
