<?xml version="1.0" encoding="utf-8"?>
<!-- Generator: Adobe Illustrator 22.1.0, SVG Export Plug-In . SVG Version: 6.00 Build 0)  -->
<svg version="1.1" id="Layer_1" xmlns="http://www.w3.org/2000/svg" xmlns:xlink="http://www.w3.org/1999/xlink" x="0px" y="0px"
     width="500px" height="500px" viewBox="0 0 500 500" style="enable-background:new 0 0 500 500;" xml:space="preserve">
<style type="text/css">
    .st0{fill:#FFFFFF;stroke:#000000;stroke-miterlimit:10;}
    .st1{fill:#268BCB;}
    .st2{fill:#FFFFFF;}
    .st3{fill:#EFEFEF;}
    .st4{fill:#ECB938;}
    .st5{fill:#EBB934;}
</style>
<rect class="st0" width="500" height="500"/>
<g>
    <g>
        <g>
            <g>
                <g>
                    <polygon points="435.9,249 437.6,249.1 437.7,244.5 436,244.5                    "/>
                    <path d="M435.7,255.8l1.8,0.1c0.1-1.5,0.1-3,0.1-4.5l-1.8-0.1C435.8,252.7,435.8,254.3,435.7,255.8z"/>
                    <polygon points="435.2,262.4 437,262.6 437.3,258.1 435.5,258                    "/>
                    <path d="M434.6,269.1l1.8,0.2c0.2-1.5,0.4-3,0.5-4.5l-1.8-0.2C435,266.1,434.7,267.6,434.6,269.1z"/>
                    <polygon points="433.8,275.8 435.6,276 436.1,271.5 434.3,271.3                  "/>
                    <polygon points="432.7,282.4 434.5,282.7 435.2,278.2 433.5,278                  "/>
                    <path d="M431.5,289l1.7,0.3c0.3-1.5,0.7-3,0.9-4.5l-1.7-0.3C432.2,286.1,431.8,287.6,431.5,289z"/>
                </g>
            </g>
            <g>
                <g>
                    <polygon points="430.2,295.6 431.9,296 432.8,291.6 431.1,291.2                  "/>
                    <polygon points="428.5,302.1 430.2,302.6 431.4,298.2 429.6,297.7                    "/>
                    <path d="M426.7,308.6l1.7,0.5c0.4-1.5,0.9-2.9,1.3-4.4l-1.7-0.5C427.6,305.7,427.1,307.1,426.7,308.6z"/>
                    <polygon points="424.7,315 426.4,315.5 427.8,311.2 426.1,310.7                  "/>
                    <polygon points="422.5,321.3 424.2,321.9 425.7,317.6 424,317.1                  "/>
                    <path d="M420.1,327.6l1.6,0.7c0.6-1.4,1.2-2.8,1.7-4.2l-1.7-0.6C421.3,324.8,420.6,326.2,420.1,327.6z"/>
                    <path d="M417.5,333.8l1.6,0.7c0.6-1.4,1.2-2.8,1.7-4.2l-1.6-0.7C418.7,331,418.2,332.4,417.5,333.8z"/>
                </g>
            </g>
            <g>
                <g>
                    <polygon points="414.7,339.9 416.3,340.6 418.2,336.5 416.6,335.8                    "/>
                    <polygon points="411.7,345.9 413.3,346.7 415.4,342.7 413.8,341.9                    "/>
                    <path d="M408.6,351.8l1.6,0.9c0.8-1.3,1.4-2.7,2.1-4l-1.6-0.8C410,349.2,409.4,350.5,408.6,351.8z"/>
                    <polygon points="405.2,357.6 406.8,358.5 409,354.6 407.5,353.7                  "/>
                    <polygon points="401.7,363.3 403.2,364.3 405.6,360.4 404.1,359.5                    "/>
                    <path d="M398,368.9l1.5,1l1.3-1.9c0.4-0.6,0.8-1.3,1.2-1.9l-1.5-1c-0.4,0.6-0.8,1.3-1.2,1.9L398,368.9z"/>
                    <polygon points="394.1,374.4 395.5,375.4 398.1,371.7 396.7,370.7                    "/>
                </g>
            </g>
            <g>
                <g>
                    <polygon points="390,379.7 391.4,380.8 394.2,377.2 392.7,376.1                  "/>
                    <path d="M385.7,384.9l1.4,1.2c1-1.2,2-2.3,2.9-3.5l-1.4-1.1C387.7,382.6,386.7,383.7,385.7,384.9z"/>
                    <path d="M381.3,389.9l1.3,1.2c1.1-1.1,2-2.3,3-3.4l-1.3-1.2C383.3,387.7,382.4,388.8,381.3,389.9z"/>
                    <polygon points="376.7,394.8 378,396 381.1,392.7 379.8,391.5                    "/>
                    <polygon points="371.9,399.5 373.1,400.8 376.4,397.6 375.2,396.4                    "/>
                    <path d="M367,404.1l1.2,1.3c1.1-1,2.3-2,3.4-3.1l-1.2-1.3C369.3,402.1,368.1,403.1,367,404.1z"/>
                    <polygon points="361.9,408.5 363.1,409.8 366.5,406.8 365.3,405.5                    "/>
                </g>
            </g>
            <g>
                <g>
                    <polygon points="356.7,412.6 357.8,414 361.3,411.2 360.2,409.8                  "/>
                    <polygon points="351.3,416.6 352.3,418.1 356,415.4 354.9,414                    "/>
                    <path d="M345.8,420.4l1,1.5c1.3-0.8,2.5-1.7,3.8-2.6l-1-1.5C348.3,418.8,347,419.6,345.8,420.4z"/>
                    <polygon points="340.1,424 341,425.5 344.9,423.1 343.9,421.6                    "/>
                    <polygon points="334.3,427.4 335.2,428.9 339.1,426.7 338.2,425.1                    "/>
                    <path d="M328.4,430.5l0.8,1.6c1.3-0.7,2.7-1.3,4-2.1l-0.8-1.6C331.1,429.2,329.7,429.8,328.4,430.5z"/>
                    <path d="M322.4,433.5l0.7,1.6c1.4-0.6,2.7-1.3,4.1-2l-0.8-1.6C325.1,432.2,323.7,432.9,322.4,433.5z"/>
                </g>
            </g>
            <g>
                <g>
                    <polygon points="316.2,436.2 316.9,437.8 321.1,436 320.3,434.3                  "/>
                    <polygon points="310,438.6 310.6,440.2 314.8,438.6 314.2,437                    "/>
                    <path d="M303.6,440.8l0.5,1.7c1.4-0.5,2.9-0.9,4.3-1.4l-0.6-1.7C306.5,439.9,305,440.3,303.6,440.8z"/>
                    <path d="M297.2,442.7l0.5,1.7c1.5-0.4,2.9-0.9,4.3-1.3l-0.5-1.7C300.1,441.9,298.7,442.4,297.2,442.7z"/>
                    <polygon points="290.7,444.4 291.1,446.1 295.5,445 295.1,443.3                  "/>
                    <polygon points="284.2,445.8 284.5,447.5 289,446.7 288.6,444.9                  "/>
                    <path d="M277.6,447l0.3,1.8l2.3-0.3c0.7-0.1,1.5-0.3,2.2-0.4l-0.3-1.7c-0.7,0.1-1.5,0.3-2.2,0.4L277.6,447z"/>
                </g>
            </g>
            <g>
                <g>
                    <polygon points="270.9,447.9 271.1,449.7 275.6,449 275.4,447.3                  "/>
                    <polygon points="264.3,448.5 264.4,450.2 268.9,449.9 268.7,448.1                    "/>
                    <path d="M257.6,448.8l0.1,1.8c1.5-0.1,3-0.1,4.5-0.2l-0.1-1.8C260.6,448.8,259.1,448.8,257.6,448.8z"/>
                    <path d="M250.9,448.9l0,1.8c1.5,0.1,3,0,4.5-0.1l0-1.8C253.9,448.9,252.4,449,250.9,448.9z"/>
                    <polygon points="244.2,448.8 244.1,450.5 248.6,450.7 248.7,448.9                    "/>
                    <polygon points="237.5,448.3 237.3,450.1 241.8,450.4 242,448.7                  "/>
                    <path d="M230.8,447.6l-0.2,1.8l2.3,0.3c0.8,0.1,1.5,0.1,2.3,0.2l0.2-1.8c-0.7-0.1-1.5-0.1-2.2-0.2L230.8,447.6z"/>
                </g>
            </g>
            <g>
                <g>
                    <polygon points="224.2,446.6 223.9,448.4 228.4,449 228.6,447.3                  "/>
                    <polygon points="217.6,445.3 217.2,447.1 221.7,448 222,446.2                    "/>
                    <path d="M211.1,443.8l-0.4,1.7c1.5,0.4,2.9,0.8,4.4,1.1l0.4-1.7C214,444.6,212.5,444.2,211.1,443.8z"/>
                    <path d="M204.6,442.1l-0.5,1.7c1.4,0.5,2.9,0.8,4.4,1.2l0.5-1.7C207.5,442.9,206,442.6,204.6,442.1z"/>
                    <polygon points="198.2,440.1 197.6,441.8 202,443.1 202.5,441.4                  "/>
                    <polygon points="191.9,437.8 191.3,439.4 195.5,441 196.1,439.3                  "/>
                    <path d="M185.7,435.2l-0.7,1.6c1.4,0.6,2.8,1.3,4.2,1.8l0.7-1.7C188.4,436.5,187.1,435.8,185.7,435.2z"/>
                </g>
            </g>
            <g>
                <g>
                    <path d="M179.6,432.5l-0.8,1.6c1.3,0.7,2.8,1.2,4.1,1.9l0.7-1.6C182.3,433.7,180.9,433.2,179.6,432.5z"/>
                    <polygon points="173.6,429.5 172.8,431.1 176.8,433.1 177.6,431.5                    "/>
                    <polygon points="167.7,426.2 166.8,427.8 170.8,430 171.6,428.5                  "/>
                    <path d="M162,422.8l-0.9,1.5c1.3,0.8,2.5,1.7,3.9,2.4l0.9-1.5C164.5,424.4,163.2,423.6,162,422.8z"/>
                    <path d="M156.3,419.2l-1,1.5c1.3,0.9,2.5,1.6,3.8,2.5l1-1.5C158.8,420.8,157.6,420,156.3,419.2z"/>
                    <polygon points="150.9,415.3 149.8,416.7 153.5,419.3 154.5,417.9                    "/>
                    <polygon points="145.5,411.2 144.4,412.6 148,415.4 149.1,414                    "/>
                </g>
            </g>
            <g>
                <g>
                    <polygon points="140.3,407 139.2,408.3 140.9,409.8 142.7,411.2 143.8,409.8 142,408.4                    "/>
                    <polygon points="135.3,402.5 134.1,403.9 137.5,406.8 138.7,405.5                    "/>
                    <polygon points="130.4,397.9 129.2,399.2 132.5,402.3 133.7,401                  "/>
                    <path d="M125.7,393.1l-1.3,1.2c1.1,1.1,2.1,2.2,3.1,3.3l1.3-1.3C127.8,395.3,126.8,394.2,125.7,393.1z"/>
                    <path d="M121.2,388.2l-1.3,1.2c1,1.2,2.1,2.2,3.1,3.3l1.3-1.2C123.2,390.4,122.1,389.4,121.2,388.2z"/>
                    <polygon points="116.8,383.1 115.4,384.3 118.4,387.7 119.7,386.5                    "/>
                    <polygon points="112.6,377.9 111.2,379 114,382.5 115.4,381.4                    "/>
                </g>
            </g>
            <g>
                <g>
                    <path d="M108.6,372.5l-1.4,1c0.9,1.2,1.7,2.5,2.7,3.7l1.4-1.1C110.3,375,109.5,373.7,108.6,372.5z"/>
                    <polygon points="104.7,367 103.2,368 105.9,371.7 107.3,370.7                    "/>
                    <polygon points="101.1,361.4 99.6,362.3 102,366.2 103.5,365.2                   "/>
                    <path d="M97.6,355.6l-1.5,0.9c0.8,1.3,1.5,2.6,2.3,3.9l1.5-0.9C99.1,358.3,98.4,356.9,97.6,355.6z"/>
                    <path d="M94.3,349.8l-1.6,0.8c0.7,1.4,1.5,2.6,2.2,4l1.5-0.9C95.8,352.4,95,351.1,94.3,349.8z"/>
                    <polygon points="91.2,343.8 89.6,344.6 91.7,348.7 93.3,347.8                    "/>
                    <polygon points="88.3,337.8 86.7,338.5 88.6,342.7 90.2,341.9                    "/>
                </g>
            </g>
            <g>
                <g>
                    <path d="M85.6,331.7l-1.6,0.7c0.5,1.4,1.2,2.8,1.8,4.2l1.6-0.7C86.8,334.4,86.1,333.1,85.6,331.7z"/>
                    <polygon points="83.1,325.4 81.4,326.1 83.1,330.3 84.8,329.6                    "/>
                    <polygon points="80.8,319.1 79.1,319.7 80.6,324 82.3,323.4                  "/>
                    <polygon points="78.6,312.8 76.9,313.3 77.6,315.5 78.3,317.6 80,317.1 79.3,314.9                    "/>
                    <polygon points="76.6,306.4 74.9,306.9 76.3,311.2 78,310.7                  "/>
                    <polygon points="74.9,299.9 73.2,300.3 74.3,304.7 76.1,304.2                    "/>
                    <polygon points="73.4,293.3 71.6,293.7 72.1,296 72.7,298.2 74.4,297.7 73.8,295.6                    "/>
                </g>
            </g>
            <g>
                <g>
                    <polygon points="72,286.8 70.3,287.1 71.2,291.6 72.9,291.2                  "/>
                    <polygon points="70.9,280.2 69.1,280.4 69.9,284.9 71.6,284.6                    "/>
                    <polygon points="69.9,273.5 68.2,273.7 68.4,276 68.8,278.2 70.5,278 70.2,275.8                  "/>
                    <polygon points="69.2,266.8 67.4,267 67.9,271.5 69.7,271.3                  "/>
                    <polygon points="68.6,260.2 66.9,260.3 67.2,264.8 69,264.6                  "/>
                    <path d="M68.3,253.4l-1.8,0.1c0,1.5,0.1,3,0.2,4.5l1.8-0.1C68.4,256.5,68.3,255,68.3,253.4z"/>
                    <polygon points="68.1,246.7 66.3,246.8 66.4,251.3 68.2,251.2                    "/>
                </g>
            </g>
            <g>
                <g>
                    <polygon points="68.2,240 66.4,240 66.3,244.5 68.1,244.5                    "/>
                    <path d="M68.3,233.3l-1.8-0.1c-0.1,1.5-0.1,3-0.1,4.5l1.8,0.1C68.3,236.3,68.2,234.8,68.3,233.3z"/>
                    <polygon points="68.8,226.6 67,226.5 66.7,231 68.5,231.1                    "/>
                    <path d="M69.4,219.9l-1.8-0.2c-0.2,1.5-0.4,3-0.5,4.5l1.8,0.2C69.1,222.9,69.3,221.4,69.4,219.9z"/>
                    <polygon points="70.2,213.3 68.4,213 67.9,217.5 69.7,217.7                  "/>
                    <polygon points="71.3,206.6 69.5,206.3 68.8,210.8 70.5,211.1                    "/>
                    <path d="M72.5,200l-1.7-0.3c-0.3,1.5-0.7,3-0.9,4.5l1.7,0.3C71.8,203,72.2,201.5,72.5,200z"/>
                </g>
            </g>
            <g>
                <g>
                    <polygon points="73.8,193.5 72.1,193.1 71.2,197.5 72.9,197.9                    "/>
                    <polygon points="75.5,187 73.8,186.5 72.7,190.9 74.4,191.3                  "/>
                    <path d="M77.3,180.5l-1.7-0.5c-0.4,1.5-0.9,2.9-1.3,4.4l1.7,0.5C76.4,183.4,76.9,181.9,77.3,180.5z"/>
                    <polygon points="79.3,174.1 77.6,173.5 76.3,177.9 78,178.4                  "/>
                    <polygon points="81.5,167.8 79.9,167.1 78.3,171.4 80,172                    "/>
                    <path d="M83.9,161.5l-1.6-0.7c-0.6,1.4-1.2,2.8-1.7,4.2l1.7,0.6C82.8,164.3,83.4,162.9,83.9,161.5z"/>
                    <path d="M86.5,155.3l-1.6-0.7c-0.6,1.4-1.2,2.8-1.7,4.2l1.6,0.7C85.3,158.1,85.9,156.6,86.5,155.3z"/>
                </g>
            </g>
            <g>
                <g>
                    <polygon points="89.3,149.2 87.7,148.4 85.8,152.5 87.4,153.3                    "/>
                    <polygon points="92.3,143.2 90.7,142.4 88.6,146.4 90.2,147.2                    "/>
                    <path d="M95.4,137.2l-1.6-0.9c-0.8,1.3-1.4,2.7-2.1,4l1.6,0.8C94,139.9,94.6,138.5,95.4,137.2z"/>
                    <polygon points="98.8,131.4 97.3,130.5 95,134.5 96.5,135.3                  "/>
                    <polygon points="102.3,125.7 100.8,124.8 98.4,128.6 99.9,129.5                  "/>
                    <path d="M106.1,120.2l-1.5-1l-1.3,1.9c-0.4,0.6-0.8,1.3-1.2,1.9l1.5,1c0.4-0.6,0.8-1.3,1.2-1.9L106.1,120.2z"/>
                    <polygon points="109.9,114.7 108.5,113.6 105.9,117.3 107.3,118.4                    "/>
                </g>
            </g>
            <g>
                <g>
                    <polygon points="114,109.4 112.7,108.3 109.9,111.9 111.3,112.9                  "/>
                    <path d="M118.3,104.2L117,103c-1,1.2-2,2.3-2.9,3.5l1.4,1.1C116.3,106.5,117.3,105.4,118.3,104.2z"/>
                    <path d="M122.7,99.1l-1.3-1.2c-1.1,1.1-2,2.3-3,3.4l1.3,1.2C120.7,101.4,121.7,100.2,122.7,99.1z"/>
                    <polygon points="127.3,94.3 126,93 122.9,96.3 124.2,97.5                    "/>
                    <polygon points="132.1,89.6 130.9,88.3 127.6,91.4 128.9,92.7                    "/>
                    <path d="M137,85l-1.2-1.3c-1.1,1-2.3,2-3.4,3.1l1.2,1.3C134.8,87,135.9,86,137,85z"/>
                    <polygon points="142.1,80.6 140.9,79.2 137.5,82.2 138.7,83.6                    "/>
                </g>
            </g>
            <g>
                <g>
                    <polygon points="147.3,76.4 146.3,75 142.7,77.9 143.8,79.2                  "/>
                    <polygon points="152.7,72.5 151.7,71 148,73.7 149.1,75.1                    "/>
                    <path d="M158.3,68.6l-1-1.5c-1.3,0.8-2.5,1.7-3.8,2.6l1,1.5C155.7,70.3,157,69.4,158.3,68.6z"/>
                    <polygon points="163.9,65 163,63.5 159.1,66 160.1,67.5                  "/>
                    <polygon points="169.7,61.7 168.9,60.1 164.9,62.4 165.8,63.9                    "/>
                    <path d="M175.6,58.5l-0.8-1.6c-1.3,0.7-2.7,1.3-4,2.1l0.8,1.6C172.9,59.9,174.3,59.2,175.6,58.5z"/>
                    <path d="M181.7,55.6l-0.7-1.6c-1.4,0.6-2.7,1.3-4.1,2l0.8,1.6C179,56.9,180.3,56.2,181.7,55.6z"/>
                </g>
            </g>
            <g>
                <g>
                    <polygon points="187.8,52.9 187.1,51.3 183,53.1 183.7,54.7                  "/>
                    <polygon points="194.1,50.5 193.4,48.8 189.2,50.4 189.8,52.1                    "/>
                    <path d="M200.4,48.3l-0.5-1.7c-1.4,0.5-2.9,0.9-4.3,1.4l0.6,1.7C197.5,49.2,199,48.8,200.4,48.3z"/>
                    <path d="M206.8,46.3l-0.5-1.7c-1.5,0.4-2.9,0.9-4.3,1.3l0.5,1.7C203.9,47.2,205.3,46.7,206.8,46.3z"/>
                    <polygon points="213.3,44.7 212.9,42.9 208.5,44.1 208.9,45.8                    "/>
                    <polygon points="219.8,43.3 219.5,41.5 215,42.4 215.4,44.1                  "/>
                    <path d="M226.4,42.1l-0.3-1.8l-2.3,0.3c-0.7,0.1-1.5,0.3-2.2,0.4l0.3,1.7c0.7-0.1,1.5-0.3,2.2-0.4L226.4,42.1z"/>
                </g>
            </g>
            <g>
                <g>
                    <polygon points="233.1,41.2 232.9,39.4 228.4,40 228.6,41.8                  "/>
                    <polygon points="239.8,40.6 239.6,38.8 235.1,39.2 235.3,41                  "/>
                    <path d="M246.5,40.2l-0.1-1.8c-1.5,0.1-3,0.1-4.5,0.2l0.1,1.8C243.5,40.3,245,40.3,246.5,40.2z"/>
                    <path d="M253.2,40.1l0-1.8c-1.5-0.1-3,0-4.5,0.1l0,1.8C250.2,40.2,251.7,40,253.2,40.1z"/>
                    <polygon points="259.9,40.3 259.9,38.5 255.4,38.4 255.4,40.2                    "/>
                    <polygon points="266.5,40.8 266.7,39 262.2,38.6 262.1,40.4                  "/>
                    <path d="M273.2,41.5l0.2-1.8l-2.3-0.3c-0.8-0.1-1.5-0.1-2.3-0.2l-0.2,1.8c0.7,0.1,1.5,0.1,2.2,0.2L273.2,41.5z"/>
                </g>
            </g>
            <g>
                <g>
                    <polygon points="279.8,42.4 280.1,40.7 275.6,40 275.4,41.8                  "/>
                    <polygon points="286.4,43.7 286.8,42 282.3,41.1 282,42.8                    "/>
                    <path d="M292.9,45.2l0.4-1.7c-1.5-0.4-2.9-0.8-4.4-1.1l-0.4,1.7C290,44.5,291.5,44.9,292.9,45.2z"/>
                    <path d="M299.4,47l0.5-1.7c-1.4-0.5-2.9-0.8-4.4-1.2l-0.5,1.7C296.5,46.2,298,46.5,299.4,47z"/>
                    <polygon points="305.8,49 306.4,47.3 302,45.9 301.5,47.6                    "/>
                    <polygon points="312.1,51.3 312.7,49.7 308.5,48.1 307.9,49.7                    "/>
                    <path d="M318.3,53.8l0.7-1.6c-1.4-0.6-2.8-1.3-4.2-1.8l-0.7,1.7C315.6,52.6,316.9,53.3,318.3,53.8z"/>
                </g>
            </g>
            <g>
                <g>
                    <path d="M324.4,56.6l0.8-1.6c-1.3-0.7-2.8-1.2-4.1-1.9l-0.7,1.6C321.7,55.3,323.1,55.9,324.4,56.6z"/>
                    <polygon points="330.4,59.6 331.3,58 327.2,56 326.4,57.6                    "/>
                    <polygon points="336.3,62.8 337.2,61.3 333.2,59 332.4,60.6                  "/>
                    <path d="M342,66.3l0.9-1.5c-1.3-0.8-2.5-1.7-3.9-2.4l-0.9,1.5C339.5,64.6,340.8,65.5,342,66.3z"/>
                    <path d="M347.7,69.9l1-1.5c-1.3-0.9-2.5-1.6-3.8-2.5l-1,1.5C345.2,68.3,346.4,69.1,347.7,69.9z"/>
                    <polygon points="353.1,73.8 354.2,72.4 350.5,69.7 349.5,71.2                    "/>
                    <polygon points="358.5,77.9 359.6,76.5 356,73.7 354.9,75.1                  "/>
                </g>
            </g>
            <g>
                <g>
                    <polygon points="363.7,82.1 364.8,80.8 363.1,79.3 361.3,77.9 360.2,79.2 362,80.6                    "/>
                    <polygon points="368.7,86.5 369.9,85.2 366.5,82.2 365.3,83.6                    "/>
                    <polygon points="373.6,91.2 374.8,89.9 371.5,86.7 370.3,88                  "/>
                    <path d="M378.3,95.9l1.3-1.2c-1.1-1.1-2.1-2.2-3.1-3.3l-1.3,1.3C376.2,93.7,377.2,94.9,378.3,95.9z"/>
                    <path d="M382.8,100.9l1.3-1.2c-1-1.2-2.1-2.2-3.1-3.3l-1.3,1.2C380.8,98.6,381.9,99.7,382.8,100.9z"/>
                    <polygon points="387.2,105.9 388.6,104.8 385.6,101.4 384.3,102.5                    "/>
                    <polygon points="391.4,111.2 392.8,110.1 390,106.5 388.6,107.6                  "/>
                </g>
            </g>
            <g>
                <g>
                    <path d="M395.4,116.6l1.4-1c-0.9-1.2-1.7-2.5-2.7-3.7l-1.4,1.1C393.7,114.1,394.6,115.3,395.4,116.6z"/>
                    <polygon points="399.3,122 400.8,121 398.1,117.3 396.7,118.4                    "/>
                    <polygon points="402.9,127.7 404.4,126.7 402,122.9 400.5,123.9                  "/>
                    <path d="M406.4,133.4l1.5-0.9c-0.8-1.3-1.5-2.6-2.3-3.9l-1.5,0.9C404.9,130.8,405.6,132.1,406.4,133.4z"/>
                    <path d="M409.7,139.3l1.6-0.8c-0.7-1.4-1.5-2.6-2.2-4l-1.5,0.9C408.2,136.6,409,137.9,409.7,139.3z"/>
                    <polygon points="412.8,145.2 414.4,144.4 412.3,140.4 410.7,141.2                    "/>
                    <polygon points="415.7,151.3 417.3,150.5 415.4,146.4 413.8,147.2                    "/>
                </g>
            </g>
            <g>
                <g>
                    <path d="M418.4,157.4l1.6-0.7c-0.5-1.4-1.2-2.8-1.8-4.2l-1.6,0.7C417.2,154.6,417.9,156,418.4,157.4z"/>
                    <polygon points="421,163.6 422.6,163 420.9,158.8 419.3,159.4                    "/>
                    <polygon points="423.3,169.9 424.9,169.3 423.4,165 421.8,165.7                  "/>
                    <polygon points="425.4,176.3 427.1,175.7 426.4,173.6 425.7,171.4 424,172 424.8,174.1                    "/>
                    <polygon points="427.4,182.7 429.1,182.2 427.8,177.9 426.1,178.4                    "/>
                    <polygon points="429.1,189.2 430.8,188.8 429.7,184.4 428,184.8                  "/>
                    <polygon points="430.6,195.7 432.4,195.3 431.9,193.1 431.4,190.9 429.6,191.3 430.2,193.5                    "/>
                </g>
            </g>
            <g>
                <g>
                    <polygon points="432,202.3 433.7,202 432.8,197.5 431.1,197.9                    "/>
                    <polygon points="433.1,208.9 434.9,208.6 434.1,204.1 432.4,204.5                    "/>
                    <polygon points="434.1,215.5 435.8,215.3 435.6,213.1 435.2,210.8 433.5,211.1 433.8,213.3                    "/>
                    <polygon points="434.8,222.2 436.6,222 436.1,217.5 434.3,217.7                  "/>
                    <polygon points="435.4,228.9 437.1,228.8 436.8,224.3 435.1,224.4                    "/>
                    <path d="M435.8,235.6l1.8-0.1c0-1.5-0.1-3-0.2-4.5l-1.8,0.1C435.6,232.6,435.7,234.1,435.8,235.6z"/>
                    <polygon points="435.9,242.3 437.7,242.3 437.6,237.8 435.8,237.8                    "/>
                </g>
            </g>
        </g>
    </g>
</g>
<rect x="218.9" y="6.8" class="st1" width="67.9" height="64.8"/>
<rect x="216.4" y="424.9" class="st1" width="73" height="73"/>
<g>
    <path class="st2" d="M224.4,440.9c1.7,0,2-0.3,2.2-0.3c0.7,0,1,1.3,1,1.8c0,0.4-0.2,0.9-0.7,0.9c-1,0-0.2-1.2-2.6-1.2
        c-1.4,0-1.3,0.3-1.3,1.7c0,0.7,0,0.8,0.8,0.8c1,0,0.2-1.4,1.2-1.4c0.7,0,0.8,1.5,0.8,2c0,0.5-0.1,2.1-0.9,2.1c-0.8,0,0-1.3-1.3-1.3
        c-0.5,0-0.5,0.5-0.5,0.9c0,1.9,0.1,1.8,1.5,1.8c2.6,0,1.9-1.8,2.9-1.8c0.4,0,0.6,0.5,0.6,0.8c0,0.9-0.7,2.4-1.2,2.4
        c-0.1,0-0.3,0-0.6-0.1c-0.3,0-0.6-0.1-1.1-0.1H220c-0.8,0-0.9-0.4-0.9-0.6c0-0.7,0.9-0.1,1-1.5c0.2-2.3,0.2-2.1,0-4.4
        c-0.1-2-1.1-1-1.1-1.9c0-0.8,1.1-0.7,1.6-0.7H224.4z"/>
    <path class="st2" d="M235.3,444c0.2,0.1,0.6,0.5,0.8,0.5c0.3,0,0.3-0.5,0.3-0.7c0-0.3,0-0.9-0.1-1.2c-0.2-0.5-0.9-0.3-0.9-1
        c0-0.8,1.3-0.8,1.9-0.8c0.6,0,2-0.1,2,0.8c0,0.7-0.7,0.5-0.9,1.1c-0.2,0.5-0.2,1.3-0.2,1.7v3.3c0,0.6,0.1,2.3-0.8,2.3
        c-0.3,0-0.5-0.2-0.7-0.3l-4-3.6c-0.2-0.2-0.5-0.5-0.8-0.5c-0.4,0-0.4,0.8-0.4,1.1c0,0.4,0,0.8,0.1,1.2c0.2,0.8,0.9,0.5,0.9,1.1
        c0,0.9-1.3,0.9-1.9,0.9c-0.6,0-1.9-0.1-1.9-0.9c0-0.7,0.7-0.4,0.9-1.2c0.1-0.6,0.1-1.4,0.1-1.9c0-0.9,0-1.9-0.1-2.8
        c-0.2-1.3-1.1-0.8-1.1-1.6c0-0.9,1.7-0.9,2.3-0.9c0.8,0,0.9,0.1,1.5,0.6L235.3,444z"/>
    <path class="st2" d="M244.8,440.7c1.3,0,2.1,0.6,2.4,0.6c0.3,0,0.4-0.1,0.6-0.1c0.5,0,1.2,0.8,1.2,2.2c0,0.7-0.4,1.3-1.2,1.3
        c-1.3,0-1-2.3-3.3-2.3c-1,0-1.4,0.9-1.4,1.6c0,1.9,1,3.5,2.8,3.5c1.6,0,1.9-0.9,2.3-0.9c0.4,0,0.6,0.4,0.6,0.8
        c0,0.6-0.6,1.7-1.2,1.7c-0.4,0-1.3,0.7-2.9,0.7c-2.7,0-4.9-2.1-4.9-4.7C239.8,442.7,242.2,440.7,244.8,440.7z"/>
    <path class="st2" d="M249.5,445.4c0-2.7,2.2-4.7,5-4.7c3.5,0,4.9,3.1,4.9,4.8c0,2.8-2.4,4.6-5.1,4.6
        C251.6,450.1,249.5,448.1,249.5,445.4z M253.9,442.6c-0.7,0-1.1,0.7-1.1,1.4c0,1.1,0.8,4.2,2.2,4.2c0.8,0,1.1-0.7,1.1-1.4
        C256.1,445.6,255.4,442.6,253.9,442.6z"/>
    <path class="st2" d="M261,443c0-1.3-0.9-0.7-0.9-1.5c0-0.6,0.7-0.7,1.2-0.7h4.2c3.6,0,4.7,2.2,4.7,4.5c0,2.4-1.4,4.6-4.7,4.6
        c-0.6,0-1,0-1.4,0c-0.4,0-0.7,0-1.1,0c-0.4,0-0.7,0-1.1,0c-0.4,0-0.7,0-1.1,0c-0.4,0-1-0.2-1-0.7c0-0.9,1,0.1,1.1-1.8L261,443z
         M264.1,447.7c0,0.7,0.1,0.9,0.8,0.9c1.6,0,1.9-1.7,1.9-2.9c0-3-1.1-3.5-2.1-3.5c-0.5,0-0.6,0.2-0.6,0.7V447.7z"/>
    <path class="st2" d="M276,440.9c1.7,0,2-0.3,2.2-0.3c0.7,0,1,1.3,1,1.8c0,0.4-0.2,0.9-0.7,0.9c-1,0-0.2-1.2-2.6-1.2
        c-1.4,0-1.3,0.3-1.3,1.7c0,0.7,0,0.8,0.8,0.8c1,0,0.2-1.4,1.2-1.4c0.7,0,0.8,1.5,0.8,2c0,0.5-0.1,2.1-0.9,2.1c-0.8,0,0-1.3-1.3-1.3
        c-0.5,0-0.5,0.5-0.5,0.9c0,1.9,0.1,1.8,1.5,1.8c2.6,0,1.9-1.8,2.9-1.8c0.4,0,0.6,0.5,0.6,0.8c0,0.9-0.7,2.4-1.2,2.4
        c-0.1,0-0.3,0-0.6-0.1c-0.3,0-0.6-0.1-1.1-0.1h-5.3c-0.8,0-0.9-0.4-0.9-0.6c0-0.7,0.9-0.1,1-1.5c0.2-2.3,0.2-2.1,0-4.4
        c-0.1-2-1.1-1-1.1-1.9c0-0.8,1.1-0.7,1.6-0.7H276z"/>
    <path class="st2" d="M281.7,450.6c-0.4,0.9-0.4,1.2-1,1.2c-0.3,0-1.1-0.1-1.1-0.5c0-0.3,0.7-1.2,1.4-2.7l3.2-6.6
        c0.5-0.9,0.4-1.2,1-1.2c0.3,0,1.1,0.1,1.1,0.5c0,0.3-0.7,1.2-1.4,2.7L281.7,450.6z"/>
    <path class="st2" d="M220.2,458.4c0-1.3-0.9-0.7-0.9-1.5c0-0.6,0.7-0.7,1.2-0.7h4.2c3.6,0,4.7,2.2,4.7,4.5c0,2.4-1.4,4.6-4.7,4.6
        c-0.6,0-1,0-1.4,0c-0.4,0-0.7,0-1.1,0c-0.4,0-0.7,0-1.1,0c-0.4,0-0.7,0-1.1,0c-0.4,0-1-0.2-1-0.7c0-0.9,1,0.1,1.1-1.8L220.2,458.4z
         M223.3,463.1c0,0.7,0.1,0.9,0.8,0.9c1.6,0,1.9-1.7,1.9-2.9c0-3-1.1-3.5-2.1-3.5c-0.5,0-0.6,0.2-0.6,0.7V463.1z"/>
    <path class="st2" d="M235.2,456.3c1.7,0,2-0.3,2.2-0.3c0.7,0,1,1.3,1,1.8c0,0.4-0.2,0.9-0.7,0.9c-1,0-0.2-1.2-2.6-1.2
        c-1.4,0-1.3,0.3-1.3,1.7c0,0.7,0,0.8,0.8,0.8c1,0,0.2-1.4,1.2-1.4c0.7,0,0.8,1.5,0.8,2c0,0.5-0.1,2.1-0.9,2.1c-0.8,0,0-1.3-1.3-1.3
        c-0.5,0-0.5,0.5-0.5,0.9c0,1.9,0.1,1.8,1.5,1.8c2.6,0,1.9-1.8,2.9-1.8c0.4,0,0.6,0.5,0.6,0.8c0,0.9-0.7,2.4-1.2,2.4
        c-0.1,0-0.3,0-0.6-0.1c-0.3,0-0.6-0.1-1.1-0.1h-5.3c-0.8,0-0.9-0.4-0.9-0.6c0-0.7,0.9-0.1,1-1.5c0.2-2.3,0.2-2.1,0-4.4
        c-0.1-2-1.1-1-1.1-1.9c0-0.8,1.1-0.7,1.6-0.7H235.2z"/>
    <path class="st2" d="M244.4,456.1c1.3,0,2.1,0.6,2.4,0.6c0.3,0,0.4-0.1,0.6-0.1c0.5,0,1.2,0.8,1.2,2.2c0,0.7-0.4,1.3-1.2,1.3
        c-1.3,0-1-2.3-3.3-2.3c-1,0-1.4,0.9-1.4,1.6c0,1.9,1,3.5,2.8,3.5c1.6,0,1.9-0.9,2.3-0.9c0.4,0,0.6,0.4,0.6,0.8
        c0,0.6-0.6,1.7-1.2,1.7c-0.4,0-1.3,0.7-2.9,0.7c-2.7,0-4.9-2.1-4.9-4.7C239.4,458.1,241.9,456.1,244.4,456.1z"/>
    <path class="st2" d="M249.1,460.8c0-2.7,2.2-4.7,5-4.7c3.5,0,4.9,3.1,4.9,4.8c0,2.8-2.4,4.6-5.1,4.6
        C251.2,465.5,249.1,463.5,249.1,460.8z M253.5,458c-0.7,0-1.1,0.7-1.1,1.4c0,1.1,0.8,4.2,2.2,4.2c0.8,0,1.1-0.7,1.1-1.4
        C255.7,461,255,458,253.5,458z"/>
    <path class="st2" d="M260.6,458.4c0-1.3-0.9-0.7-0.9-1.5c0-0.6,0.7-0.7,1.2-0.7h4.2c3.6,0,4.7,2.2,4.7,4.5c0,2.4-1.4,4.6-4.7,4.6
        c-0.6,0-1,0-1.4,0c-0.4,0-0.7,0-1.1,0c-0.4,0-0.7,0-1.1,0c-0.4,0-0.7,0-1.1,0c-0.4,0-1-0.2-1-0.7c0-0.9,1,0.1,1.1-1.8L260.6,458.4z
         M263.7,463.1c0,0.7,0.1,0.9,0.8,0.9c1.6,0,1.9-1.7,1.9-2.9c0-3-1.1-3.5-2.1-3.5c-0.5,0-0.6,0.2-0.6,0.7V463.1z"/>
    <path class="st2" d="M275.6,456.3c1.7,0,2-0.3,2.2-0.3c0.7,0,1,1.3,1,1.8c0,0.4-0.2,0.9-0.7,0.9c-1,0-0.2-1.2-2.6-1.2
        c-1.4,0-1.3,0.3-1.3,1.7c0,0.7,0,0.8,0.8,0.8c1,0,0.2-1.4,1.2-1.4c0.7,0,0.8,1.5,0.8,2c0,0.5-0.1,2.1-0.9,2.1c-0.8,0,0-1.3-1.3-1.3
        c-0.5,0-0.5,0.5-0.5,0.9c0,1.9,0.1,1.8,1.5,1.8c2.6,0,1.9-1.8,2.9-1.8c0.4,0,0.6,0.5,0.6,0.8c0,0.9-0.7,2.4-1.2,2.4
        c-0.1,0-0.3,0-0.6-0.1c-0.3,0-0.6-0.1-1.1-0.1h-5.3c-0.8,0-0.9-0.4-0.9-0.6c0-0.7,0.9-0.1,1-1.5c0.2-2.3,0.2-2.1,0-4.4
        c-0.1-2-1.1-1-1.1-1.9c0-0.8,1.1-0.7,1.6-0.7H275.6z"/>
</g>
<path class="st1" d="M477.2,259.3c0,23.5-18.1,42.5-40.4,42.5c-22.3,0-40.4-19-40.4-42.5c0-23.4,18.1-42.5,40.4-42.5
    C459.2,216.9,477.2,235.9,477.2,259.3z"/>
<g>
    <path class="st3" d="M401.2,262.4c0-1-1-0.6-1-1.4c0-0.5,0.5-0.7,0.8-0.7c0.3,0,0.5,0,0.8,0c1.6,0,2.6-0.2,3.1-0.2
        c1.5,0,3,1.1,3,3.1c0,2-1.4,3.1-2.9,3.1c-0.3,0-0.7-0.1-1-0.1c-0.1,0-0.2,0.1-0.2,0.2v0.8c0,1.7,0.8,1,0.8,1.8
        c0,0.9-1.6,0.9-2.1,0.9c-0.5,0-2.1,0-2.1-0.9c0-0.7,0.8-0.3,0.8-1.4V262.4z M404.2,261.8c-0.4,0-0.4,0.2-0.4,0.4v2
        c0,0.3-0.1,0.6,0.5,0.6c0.7,0,1-0.7,1-1.5C405.3,262.5,404.9,261.8,404.2,261.8z"/>
    <path class="st3" d="M409,263.2c0-2.1-0.8-1.2-0.8-2.1c0-0.7,0.9-0.8,1.3-0.8c0.2,0,0.5,0,0.7,0c0.2,0,0.5,0.1,0.7,0.1
        c0.4,0,0.7,0,1.1-0.1c0.4,0,0.7,0,1.1,0c1.3,0,2.7,0.7,2.7,2.5c0,0.8-0.3,1.6-0.9,2c-0.1,0.1-0.2,0.1-0.2,0.3
        c0,0.2,0.1,0.3,0.3,0.3c0.8,0.4,1.1,1,1.3,2.5c0.1,1.3,0.9,0.5,0.9,1.3c0,0.5-0.5,1.1-1.8,1.1c-1.8,0-2-1.3-2.3-3
        c-0.1-0.6-0.3-1.2-0.9-1.2c-0.2,0-0.3,0-0.3,0.9c0,0.4,0,0.9,0.1,1.3c0.1,0.6,0.7,0.4,0.7,1.1c0,0.5-0.3,0.9-2.1,0.9
        c-0.5,0-2.1,0-2.1-1c0-0.7,0.8-0.2,0.8-2V263.2z M411.6,263.8c0,0.4-0.1,0.7,0.3,0.7c0.7,0,1-0.5,1-1.3c0-0.7-0.1-1.3-0.8-1.3
        c-0.4,0-0.4,0.3-0.4,0.7L411.6,263.8z"/>
    <path class="st3" d="M417.3,265.1c0-2.9,1.9-4.9,4.3-4.9c3.1,0,4.2,3.3,4.2,5.1c0,2.9-2.1,4.9-4.4,4.9
        C419.2,270.1,417.3,268,417.3,265.1z M421.1,262.2c-0.6,0-0.9,0.8-0.9,1.5c0,1.2,0.7,4.4,1.9,4.4c0.7,0,1-0.7,1-1.5
        C423,265.4,422.4,262.2,421.1,262.2z"/>
    <path class="st3" d="M430.7,260.2c1.1,0,1.8,0.7,2.1,0.7c0.2,0,0.3-0.1,0.5-0.1c0.5,0,1.1,0.9,1.1,2.4c0,0.8-0.4,1.4-1,1.4
        c-1.1,0-0.9-2.4-2.8-2.4c-0.9,0-1.2,1-1.2,1.7c0,2,0.9,3.7,2.4,3.7c1.4,0,1.6-0.9,2-0.9c0.3,0,0.5,0.5,0.5,0.8
        c0,0.6-0.5,1.9-1.1,1.9c-0.4,0-1.2,0.8-2.5,0.8c-2.3,0-4.2-2.3-4.2-5C426.4,262.3,428.6,260.2,430.7,260.2z"/>
    <path class="st3" d="M439.3,260.4c1.5,0,1.7-0.3,1.9-0.3c0.6,0,0.9,1.3,0.9,1.9c0,0.4-0.1,1-0.6,1c-0.9,0-0.2-1.3-2.3-1.3
        c-1.2,0-1.1,0.3-1.1,1.8c0,0.8,0,0.8,0.7,0.8c0.8,0,0.2-1.5,1-1.5c0.6,0,0.7,1.5,0.7,2.1c0,0.6-0.1,2.2-0.7,2.2
        c-0.7,0,0-1.4-1.1-1.4c-0.5,0-0.5,0.5-0.5,1c0,2,0.1,1.9,1.3,1.9c2.3,0,1.6-1.9,2.5-1.9c0.4,0,0.5,0.5,0.5,0.9c0,0.9-0.6,2.6-1,2.6
        c-0.1,0-0.3,0-0.5-0.1c-0.2,0-0.6-0.1-0.9-0.1h-4.6c-0.7,0-0.7-0.4-0.7-0.6c0-0.7,0.8-0.2,0.8-1.6c0.1-2.5,0.1-2.2,0-4.7
        c-0.1-2.1-0.9-1-0.9-2c0-0.8,0.9-0.7,1.4-0.7H439.3z"/>
    <path class="st3" d="M443.1,263.4c0-1.4,1.1-3.2,3.3-3.2c0.7,0,1.5,0.4,1.7,0.4c0.2,0,0.3-0.2,0.5-0.2c0.4,0,1.2,1,1.2,2.2
        c0,0.5-0.2,0.9-0.7,0.9c-0.7,0-1.2-1.6-2.3-1.6c-0.3,0-0.7,0.2-0.7,0.7c0,1.1,1.5,0.8,2.8,1.8c0.7,0.6,1,1.2,1,2.3
        c0,1.6-1.1,3.4-3.7,3.4c-0.7,0-2-0.2-2.6-0.7c-0.5-0.4-0.8-1.8-0.8-2.5c0-0.4,0.1-0.7,0.5-0.7c0.8,0,0.7,2.2,2.7,2.2
        c0.2,0,0.9-0.1,0.9-0.7c0-1-1.5-0.7-2.8-1.9C443.5,265.2,443.1,264.3,443.1,263.4z"/>
    <path class="st3" d="M450.6,263.4c0-1.4,1.1-3.2,3.3-3.2c0.7,0,1.5,0.4,1.7,0.4c0.2,0,0.3-0.2,0.5-0.2c0.4,0,1.2,1,1.2,2.2
        c0,0.5-0.2,0.9-0.7,0.9c-0.7,0-1.2-1.6-2.3-1.6c-0.3,0-0.7,0.2-0.7,0.7c0,1.1,1.5,0.8,2.8,1.8c0.7,0.6,1,1.2,1,2.3
        c0,1.6-1.1,3.4-3.7,3.4c-0.7,0-2-0.2-2.6-0.7c-0.5-0.4-0.8-1.8-0.8-2.5c0-0.4,0.1-0.7,0.5-0.7c0.8,0,0.7,2.2,2.7,2.2
        c0.2,0,0.9-0.1,0.9-0.7c0-1-1.5-0.7-2.8-1.9C451,265.2,450.6,264.3,450.6,263.4z"/>
    <path class="st3" d="M462.4,260.4c1.5,0,1.7-0.3,1.9-0.3c0.6,0,0.9,1.3,0.9,1.9c0,0.4-0.1,1-0.6,1c-0.9,0-0.2-1.3-2.3-1.3
        c-1.2,0-1.1,0.3-1.1,1.8c0,0.8,0,0.8,0.7,0.8c0.8,0,0.2-1.5,1-1.5c0.6,0,0.7,1.5,0.7,2.1c0,0.6-0.1,2.2-0.7,2.2
        c-0.7,0,0-1.4-1.1-1.4c-0.5,0-0.5,0.5-0.5,1c0,2,0.1,1.9,1.3,1.9c2.3,0,1.6-1.9,2.5-1.9c0.4,0,0.5,0.5,0.5,0.9c0,0.9-0.6,2.6-1,2.6
        c-0.1,0-0.3,0-0.5-0.1c-0.2,0-0.6-0.1-0.9-0.1h-4.6c-0.7,0-0.7-0.4-0.7-0.6c0-0.7,0.8-0.2,0.8-1.6c0.1-2.5,0.1-2.2,0-4.7
        c-0.1-2.1-0.9-1-0.9-2c0-0.8,0.9-0.7,1.4-0.7H462.4z"/>
    <path class="st3" d="M466.9,262.6c0-1.4-0.8-0.7-0.8-1.6c0-0.6,0.6-0.7,1-0.7h3.6c3.1,0,4.1,2.3,4.1,4.8c0,2.5-1.2,4.9-4,4.9
        c-0.5,0-0.9,0-1.2,0c-0.3,0-0.6,0-1,0c-0.3,0-0.6,0-0.9,0c-0.3,0-0.6,0-0.9,0c-0.4,0-0.9-0.2-0.9-0.8c0-1,0.9,0.1,0.9-1.9
        L466.9,262.6z M469.6,267.6c0,0.7,0.1,1,0.7,1c1.4,0,1.6-1.8,1.6-3.1c0-3.2-1-3.7-1.8-3.7c-0.5,0-0.5,0.2-0.5,0.7V267.6z"/>
</g>
<path class="st1" d="M114.5,259.3c0,23.5-18.1,42.5-40.4,42.5c-22.3,0-40.4-19-40.4-42.5c0-23.4,18.1-42.5,40.4-42.5
    C96.5,216.9,114.5,235.9,114.5,259.3z"/>
<g>
    <path class="st2" d="M40.3,266.6c0-1.8-1.2-0.9-1.2-2.1c0-0.8,0.9-0.9,1.5-0.9H46c4.5,0,6,3.1,6,6.3c0,3.3-1.8,6.4-5.9,6.4
        c-0.7,0-1.3,0-1.8-0.1c-0.5,0-0.9,0-1.4,0c-0.5,0-0.9,0-1.4,0c-0.5,0-0.9,0.1-1.4,0.1c-0.6,0-1.3-0.3-1.3-1c0-1.3,1.3,0.1,1.3-2.5
        L40.3,266.6z M44.2,273.1c0,0.9,0.1,1.3,1,1.3c2.1,0,2.4-2.3,2.4-4.1c0-4.2-1.4-4.8-2.7-4.8c-0.7,0-0.7,0.3-0.7,1V273.1z"/>
    <path class="st2" d="M59.3,263.7c2.2,0,2.5-0.4,2.8-0.4c0.9,0,1.3,1.7,1.3,2.5c0,0.6-0.2,1.3-0.8,1.3c-1.3,0-0.2-1.7-3.3-1.7
        c-1.8,0-1.6,0.4-1.6,2.4c0,1,0,1.1,1,1.1c1.2,0,0.3-2,1.5-2c0.9,0,1,2,1,2.7c0,0.7-0.1,2.9-1.1,2.9c-1,0,0-1.9-1.6-1.9
        c-0.7,0-0.7,0.7-0.7,1.2c0,2.6,0.2,2.5,1.9,2.5c3.3,0,2.4-2.5,3.7-2.5c0.5,0,0.8,0.6,0.8,1.1c0,1.2-0.9,3.4-1.5,3.4
        c-0.1,0-0.4-0.1-0.7-0.1c-0.4,0-0.8-0.1-1.4-0.1h-6.7c-1.1,0-1.1-0.5-1.1-0.8c0-1,1.1-0.2,1.2-2.1c0.2-3.2,0.2-2.9,0-6.1
        c-0.1-2.7-1.4-1.3-1.4-2.6c0-1.1,1.4-0.9,2-0.9H59.3z"/>
    <path class="st2" d="M66,276.1c-0.5,0-1.4,0-1.4-0.8c0-1.1,1.3-0.2,1.3-2.2c0-1.3,0-2.4,0-3.5c0-1.1-0.1-2.1-0.1-3.1
        c0-1.5-1.5-0.7-1.5-1.7c0-1.3,2.6-1.4,3.4-1.4c3.3,0,3.4,0.6,3.4,1.2c0,1-1.3,0.2-1.3,1.9v5.7c0,1.3,0.2,1.9,1.4,1.9
        c2.8,0,1.8-2.5,2.9-2.5c0.7,0,1,0.9,1,1.5c0,1.4-0.9,3.2-1.7,3.2c-0.3,0-0.5-0.1-0.8-0.1c-0.3-0.1-0.7-0.1-1.2-0.1H66z"/>
    <path class="st2" d="M82,263.7c2.2,0,2.5-0.4,2.8-0.4c0.9,0,1.3,1.7,1.3,2.5c0,0.6-0.2,1.3-0.8,1.3c-1.3,0-0.2-1.7-3.3-1.7
        c-1.8,0-1.6,0.4-1.6,2.4c0,1,0,1.1,1,1.1c1.2,0,0.3-2,1.5-2c0.9,0,1,2,1,2.7c0,0.7-0.1,2.9-1.1,2.9c-1,0,0-1.9-1.6-1.9
        c-0.7,0-0.7,0.7-0.7,1.2c0,2.6,0.2,2.5,1.9,2.5c3.3,0,2.4-2.5,3.7-2.5c0.5,0,0.8,0.6,0.8,1.1c0,1.2-0.9,3.4-1.5,3.4
        c-0.1,0-0.4-0.1-0.7-0.1c-0.4,0-0.8-0.1-1.4-0.1h-6.7c-1.1,0-1.1-0.5-1.1-0.8c0-1,1.1-0.2,1.2-2.1c0.2-3.2,0.2-2.9,0-6.1
        c-0.1-2.7-1.4-1.3-1.4-2.6c0-1.1,1.4-0.9,2-0.9H82z"/>
    <path class="st2" d="M95,263.7c0.7,0,1-0.1,1.3-0.1c0.2-0.1,0.4-0.1,0.7-0.1c0.6,0,2,1.4,2,3.3c0,0.9-0.4,1.5-1.3,1.5
        c-1.4,0-1.4-2.1-2.2-2.1c-0.6,0-0.6,1-0.6,1.1v5.5c0,2.1,1.5,1.1,1.5,2.3c0,0.6-0.3,1.3-3.4,1.3c-0.8,0-3.9,0-3.9-1.3
        c0-0.9,1-0.6,1.3-1.2c0.2-0.4,0.2-1.4,0.2-1.9l0.1-3.9c0.1-1.9-0.3-1.8-0.5-1.8c-0.7,0-1.1,2.1-2.4,2.1c-0.6,0-1-0.6-1-1.3
        c0-1.5,1.2-3.5,2.1-3.5c0.1,0,0.3,0.1,0.6,0.1c0.3,0.1,0.7,0.1,1.4,0.1H95z"/>
    <path class="st2" d="M105.8,263.7c2.2,0,2.5-0.4,2.8-0.4c0.9,0,1.3,1.7,1.3,2.5c0,0.6-0.2,1.3-0.8,1.3c-1.3,0-0.2-1.7-3.3-1.7
        c-1.8,0-1.6,0.4-1.6,2.4c0,1,0,1.1,1,1.1c1.2,0,0.3-2,1.5-2c0.9,0,1,2,1,2.7c0,0.7-0.1,2.9-1.1,2.9c-1,0,0-1.9-1.6-1.9
        c-0.7,0-0.7,0.7-0.7,1.2c0,2.6,0.2,2.5,1.9,2.5c3.3,0,2.4-2.5,3.7-2.5c0.5,0,0.8,0.6,0.8,1.1c0,1.2-0.9,3.4-1.5,3.4
        c-0.1,0-0.4-0.1-0.7-0.1c-0.4,0-0.8-0.1-1.4-0.1h-6.7c-1.1,0-1.1-0.5-1.1-0.8c0-1,1.1-0.2,1.2-2.1c0.2-3.2,0.2-2.9,0-6.1
        c-0.1-2.7-1.4-1.3-1.4-2.6c0-1.1,1.4-0.9,2-0.9H105.8z"/>
</g>
<g>
    <path class="st1" d="M18.9,19.7c0-2.5,2.4-5.6,7.1-5.6c1.5,0,3.3,0.7,3.6,0.7c0.3,0,0.7-0.3,1.2-0.3c0.8,0,2.6,1.8,2.6,3.9
        c0,0.8-0.5,1.6-1.4,1.6c-1.6,0-2.5-2.7-5-2.7c-0.7,0-1.5,0.3-1.5,1.2c0,1.9,3.3,1.4,6.1,3.2c1.5,1,2.2,2.2,2.2,4c0,2.8-2.3,6-7.9,6
        c-1.6,0-4.3-0.4-5.7-1.2c-1.2-0.6-1.7-3.2-1.7-4.4c0-0.6,0.3-1.3,1-1.3c1.7,0,1.4,3.8,5.8,3.8c0.5,0,1.8-0.3,1.8-1.2
        c0-1.7-3.3-1.3-6-3.4C19.9,22.9,18.9,21.4,18.9,19.7z"/>
    <path class="st1" d="M44.1,14.1c2.4,0,3.9,1.2,4.5,1.2c0.5,0,0.7-0.2,1.1-0.2c1,0,2.3,1.5,2.3,4.2c0,1.4-0.8,2.5-2.2,2.5
        c-2.5,0-1.8-4.2-6.1-4.2c-1.8,0-2.6,1.7-2.6,3c0,3.6,1.9,6.6,5.3,6.6c3,0,3.5-1.7,4.2-1.7c0.7,0,1,0.8,1,1.4c0,1.1-1.1,3.3-2.3,3.3
        c-0.8,0-2.5,1.4-5.3,1.4c-5,0-9.2-4-9.2-8.8C34.8,17.8,39.4,14.1,44.1,14.1z"/>
    <path class="st1" d="M70.5,27.3c0,0.7,0.1,1.1,0.7,1.4c0.5,0.3,0.8,0.4,0.8,1c0,0.6,0,1.8-4.8,1.8c-1.1,0-4.1,0-4.1-1.6
        c-0.1-1.8,1.7,0.2,1.7-4.7c0-1.3-0.3-1.2-1.5-1.2c-3.4,0-3,0.1-3,2.3c0,3.3,1.5,2,1.5,3.5c0,1.7-3.5,1.8-4.7,1.8
        c-1.1,0-4.4-0.1-4.4-1.7c0-0.5,0.4-0.8,0.8-1c0.9-0.4,1.2-0.3,1.2-5.4c0-6.4-0.1-5.9-1-6.3c-0.4-0.2-0.8-0.4-0.8-0.9
        c0-1.8,4-2,5.4-2c1,0,3.8,0.1,3.8,1.6c0,0.7-0.4,1-1,1.3c-0.6,0.3-0.7,0.6-0.7,2.8c0,1.3,0.6,1.2,1.8,1.2h1.2c1.6,0,1.5-0.2,1.5-1
        c0-2.6-0.4-2.8-0.7-3c-0.5-0.3-0.9-0.5-0.9-1.1c0-0.5-0.1-1.8,4.7-1.8c1.1,0,4.3,0,4.3,1.7c0,0.5-0.3,0.9-0.7,1.1
        c-0.7,0.3-1,0.2-1,4.1V27.3z"/>
    <path class="st4" d="M82.8,14.4c3.2,0,3.7-0.5,4.1-0.5c1.4,0,1.9,2.4,1.9,3.4c0,0.8-0.3,1.7-1.2,1.7c-1.9,0-0.4-2.3-4.9-2.3
        c-2.7,0-2.4,0.5-2.4,3.2c0,1.4,0.1,1.4,1.5,1.4c1.8,0,0.5-2.7,2.2-2.7c1.4,0,1.5,2.7,1.5,3.6c0,1-0.2,3.9-1.6,3.9
        c-1.5,0,0-2.5-2.4-2.5c-1,0-1,0.9-1,1.7c0,3.5,0.2,3.3,2.8,3.3c4.9,0,3.5-3.4,5.5-3.4c0.8,0,1.2,0.9,1.2,1.5c0,1.6-1.3,4.6-2.3,4.6
        c-0.2,0-0.6-0.1-1.1-0.1c-0.5,0-1.2-0.1-2-0.1h-9.9c-1.6,0-1.6-0.7-1.6-1c0-1.3,1.6-0.3,1.8-2.8c0.3-4.4,0.3-3.9,0.1-8.3
        c-0.2-3.7-2-1.8-2-3.5c0-1.5,2-1.2,3-1.2H82.8z"/>
    <path class="st1" d="M96.7,24.5c-0.1-0.3-0.4-1-0.8-1c-0.7,0-0.5,3.2-0.5,4c0,2.6,1.5,1.4,1.5,2.7c0,1.4-2.6,1.4-3.5,1.4
        c-0.8,0-3-0.1-3-1.3c0-1.4,1.4-0.2,1.6-2.2c0.2-2,0.4-4.2,0.4-7.7c0-1.4-0.1-2.2-0.4-2.7c-0.2-0.5-1.6-0.7-1.6-1.7
        c0-1.4,2.2-1.7,4.2-1.7c2.8,0,2.8,0.5,3.5,1.7c0.8,1.4,2.3,5.4,3.4,5.6c0.7,0.2,1.7-2.7,2.6-4.3c1.2-2.3,1.2-3,4.4-3
        c1.1,0,3.5,0.1,3.5,1.6c0,1-1.1,1.2-1.3,2c-0.2,0.7-0.4,3.5-0.4,4.6c0,0.4,0.1,3,0.2,5.2c0.1,1.8,1.5,1.4,1.5,2.4
        c0,1.6-3.3,1.5-4.3,1.5c-1,0-4.3,0.1-4.3-1.4c0-0.8,1.1-1,1.2-1.8c0.1-0.4,0.6-4.5-0.3-4.5c-0.7,0-1.5,2.1-2.1,3.3
        c-0.5,1.1-1.4,3.8-2.2,3.7c-0.4,0-0.6,0-2-3.2L96.7,24.5z"/>
    <path class="st1" d="M117.2,22.6c0.7-1.7,1.7-3.8,1.7-5.7c0-1.7,0.8-2.9,2.9-2.9c2.1,0,3.4,2.1,4.3,3.7c0.4,0.7,4,8,4.9,10
        c0.8,1.8,2.1,0.7,2.1,2.1c0,1.8-3.4,1.7-4.6,1.7c-3.4,0-5.5,0-5.5-1.5c0-1.2,1.5-0.7,1.5-1.6c0-1.1-0.6-1.2-4.5-1.2
        c-1.2,0-2,0-2,1.2c0,0.9,1.5,0.3,1.5,1.6c0,1.4-2.6,1.5-3.6,1.5c-3.4,0-3.7-0.6-3.7-1.4c0-1.1,1.3-0.8,2-1.7c0.5-0.6,1-1.8,1.4-2.6
        L117.2,22.6z M122.2,24.3c0.2,0,1,0,1-0.3c0-0.4-0.7-1.6-0.9-1.9c-0.2-0.4-0.6-1.3-1.2-1.3c-0.6,0-1,1.4-1.1,1.7
        c-0.1,0.3-0.5,1.2-0.5,1.5c0,0.4,0.6,0.3,0.9,0.3H122.2z"/>
</g>
<g>
    <path class="st1" d="M150.5,243.1c0-5.2-0.3-6.3-0.6-6.9c-0.6-1.2-1.7-1.3-1.7-2.8c0-2.9,5.5-2.9,6.1-2.9c1.6,0,5,0.1,5,2.8
        c0,1.5-1,1.4-1.7,2.4c-0.5,0.9-0.5,4.5-0.5,7.4v4c0,7.2,0.3,7.1,0.9,7.5c0.7,0.6,1.3,0.8,1.3,2.1c0,1.2-0.2,3-6.2,3
        c-1.1,0-4.6,0-4.6-2.6c0-1.3,0.9-1.5,1.4-2.3c0.3-0.6,0.6-2.1,0.6-7.8V243.1z"/>
    <path class="st1" d="M167.2,247.9c-0.2-0.5-0.5-1.7-1-1.7c-0.8,0-0.6,5.4-0.6,6.7c0,4.3,1.7,2.3,1.7,4.5c0,2.3-2.9,2.4-4,2.4
        c-1,0-3.4-0.1-3.4-2.2c0-2.3,1.6-0.4,1.8-3.7c0.2-3.4,0.5-7.2,0.5-13.1c0-2.4-0.1-3.7-0.4-4.6c-0.3-0.9-1.8-1.1-1.8-2.8
        c0-2.3,2.5-2.9,4.7-2.9c3.2,0,3.1,0.8,3.9,2.9c1,2.4,2.6,9.1,3.8,9.5c0.8,0.3,2-4.6,2.9-7.3c1.4-3.8,1.4-5,5-5
        c1.2,0,3.9,0.1,3.9,2.7c0,1.6-1.2,1.9-1.5,3.3c-0.2,1.1-0.4,5.9-0.4,7.8c0,0.6,0.2,5.1,0.3,8.8c0.1,3,1.7,2.3,1.7,4.1
        c0,2.7-3.7,2.6-4.9,2.6c-1.1,0-4.8,0.2-4.8-2.4c0-1.4,1.2-1.7,1.4-3c0.1-0.7,0.7-7.7-0.3-7.7c-0.8,0-1.7,3.6-2.4,5.6
        c-0.6,1.9-1.6,6.5-2.4,6.3c-0.4-0.1-0.7,0-2.3-5.5L167.2,247.9z"/>
    <path class="st1" d="M190.4,244.7c0.8-2.8,2-6.4,2-9.6c0-2.8,0.9-4.9,3.3-4.9c2.4,0,3.9,3.6,4.9,6.3c0.5,1.2,4.6,13.6,5.5,16.9
        c0.9,3.1,2.4,1.2,2.4,3.5c0,3-3.9,2.8-5.2,2.8c-3.9,0-6.2,0-6.2-2.6c0-1.9,1.7-1.2,1.7-2.6c0-1.8-0.7-2-5.1-2
        c-1.4,0-2.3,0.1-2.3,2.1c0,1.6,1.7,0.5,1.7,2.6c0,2.4-2.9,2.5-4,2.5c-3.9,0-4.2-1.1-4.2-2.4c0-1.9,1.5-1.3,2.3-2.8
        c0.6-1.1,1.2-3,1.6-4.3L190.4,244.7z M196.1,247.6c0.3,0,1.1,0.1,1.1-0.5c0-0.6-0.8-2.7-1-3.3c-0.2-0.6-0.7-2.2-1.3-2.2
        c-0.7,0-1.1,2.4-1.2,2.9c-0.1,0.4-0.6,2-0.6,2.5c0,0.7,0.7,0.6,1,0.6H196.1z"/>
    <path class="st1" d="M221.2,254c1,0,1.7-1.1,1.7-2.5c0-3.4-2.9-0.1-2.9-3.8c0-3,4.1-3.2,5.5-3.2c5.1,0,5.4,2.2,5.4,3.3
        c0,1.1-0.6,1.8-1.2,1.9c-0.7,0.1-0.8,0.3-1,1.4c-1.1,5.9-4.9,8.8-8.7,8.8c-5.8,0-10.8-6-10.8-14.9c0-8.6,4.9-14.7,10.7-14.7
        c2.4,0,3.7,1.1,4.4,1.1c0.5,0,1.2-0.6,1.7-0.6c1.7,0,2.7,4.1,2.7,6.2c0,2-0.7,4-2.1,4c-2.7,0-2.7-5.6-6.4-5.6
        c-2.4,0-3.9,2.9-3.9,7.2C216.2,251,219.4,254,221.2,254z"/>
    <path class="st1" d="M242.7,230.9c3.6,0,4.2-0.8,4.6-0.8c1.5,0,2.2,4,2.2,5.8c0,1.3-0.4,2.9-1.4,2.9c-2.1,0-0.4-3.9-5.6-3.9
        c-3,0-2.7,0.8-2.7,5.5c0,2.4,0.1,2.4,1.7,2.4c2.1,0,0.5-4.5,2.4-4.5c1.6,0,1.7,4.6,1.7,6.2c0,1.7-0.2,6.5-1.8,6.5
        c-1.7,0,0-4.3-2.7-4.3c-1.1,0-1.1,1.5-1.1,2.8c0,5.9,0.3,5.6,3.1,5.6c5.6,0,4-5.7,6.2-5.7c0.9,0,1.3,1.5,1.3,2.6
        c0,2.8-1.5,7.7-2.6,7.7c-0.2,0-0.6-0.1-1.2-0.2c-0.6-0.1-1.4-0.2-2.3-0.2h-11.2c-1.8,0-1.8-1.2-1.8-1.7c0-2.2,1.8-0.4,2-4.7
        c0.3-7.4,0.4-6.7,0.1-14c-0.2-6.2-2.3-3-2.3-5.9c0-2.5,2.3-2.1,3.4-2.1H242.7z"/>
    <path class="st1" d="M267.8,242.3c-0.2,0.3-0.5,0.6-0.5,1.1c0,0.5,0.3,0.7,0.6,0.9c1.1,0.6,3,2.8,3,6.2c0,4.1-1.8,9.1-7.3,9.1
        c-0.9,0-1.8,0-2.6-0.1c-0.8,0-1.6-0.1-2.5-0.1c-0.9,0-1.9,0-2.8,0.1c-0.9,0.1-1.8,0.1-2.8,0.1c-0.8,0-1.8-0.7-1.8-2.2
        c0-2.5,1.8,0,1.9-6.7l0.3-11.7c0.2-6.1-2.2-3.3-2.2-6.1c0-1.5,1.1-2.3,2-2.3c1,0,2,0.1,3,0.1c1,0.1,2,0.2,3,0.2
        c0.7,0,1.3-0.1,1.9-0.2c0.6,0,1.3-0.1,1.9-0.1c5,0,6.2,3.5,6.2,6.7C269.3,239.1,268.8,241.1,267.8,242.3z M259.9,240.5
        c0,1.6-0.1,2.4,0.8,2.4c1.6,0,2-1.7,2-3.9c0-1.8-0.4-4.1-1.9-4.1c-1,0-0.9,1.2-0.9,2.4V240.5z M259.9,250.4c0,4.7,0.5,4.8,1.4,4.8
        c1.5,0,2.1-1.6,2.1-3.7c0-2.5-0.5-4.7-2.4-4.7c-0.8,0-1,0.6-1.1,1.5V250.4z"/>
    <path class="st1" d="M276.9,244.7c0.8-2.8,2-6.4,2-9.6c0-2.8,0.9-4.9,3.3-4.9c2.4,0,3.9,3.6,4.9,6.3c0.5,1.2,4.6,13.6,5.5,16.9
        c0.9,3.1,2.4,1.2,2.4,3.5c0,3-3.9,2.8-5.2,2.8c-3.9,0-6.2,0-6.2-2.6c0-1.9,1.7-1.2,1.7-2.6c0-1.8-0.7-2-5.1-2
        c-1.4,0-2.3,0.1-2.3,2.1c0,1.6,1.7,0.5,1.7,2.6c0,2.4-2.9,2.5-4,2.5c-3.9,0-4.2-1.1-4.2-2.4c0-1.9,1.5-1.3,2.3-2.8
        c0.6-1.1,1.2-3,1.6-4.3L276.9,244.7z M282.6,247.6c0.3,0,1.1,0.1,1.1-0.5c0-0.6-0.8-2.7-1-3.3c-0.2-0.6-0.7-2.2-1.3-2.2
        c-0.7,0-1.1,2.4-1.2,2.9c-0.1,0.4-0.6,2-0.6,2.5c0,0.7,0.7,0.6,1,0.6H282.6z"/>
    <path class="st1" d="M296,239.8c0-4.2,2.7-9.5,8-9.5c1.7,0,3.7,1.1,4.1,1.1c0.4,0,0.8-0.6,1.3-0.6c0.9,0,3,3.1,3,6.5
        c0,1.4-0.6,2.8-1.6,2.8c-1.8,0-2.9-4.6-5.7-4.6c-0.8,0-1.7,0.6-1.7,2c0,3.2,3.7,2.4,6.9,5.5c1.7,1.7,2.5,3.7,2.5,6.7
        c0,4.7-2.6,10.1-8.9,10.1c-1.8,0-4.9-0.7-6.4-1.9c-1.3-1.1-1.9-5.4-1.9-7.5c0-1.1,0.3-2.2,1.1-2.2c1.9,0,1.6,6.5,6.6,6.5
        c0.6,0,2.1-0.4,2.1-2c0-2.9-3.7-2.2-6.7-5.8C297.1,245.1,296,242.7,296,239.8z"/>
    <path class="st1" d="M324.9,230.9c3.6,0,4.2-0.8,4.6-0.8c1.5,0,2.2,4,2.2,5.8c0,1.3-0.4,2.9-1.4,2.9c-2.1,0-0.4-3.9-5.6-3.9
        c-3,0-2.7,0.8-2.7,5.5c0,2.4,0.1,2.4,1.7,2.4c2.1,0,0.5-4.5,2.4-4.5c1.6,0,1.7,4.6,1.7,6.2c0,1.7-0.2,6.5-1.8,6.5
        c-1.7,0,0-4.3-2.7-4.3c-1.1,0-1.1,1.5-1.1,2.8c0,5.9,0.3,5.6,3.1,5.6c5.6,0,4-5.7,6.2-5.7c0.9,0,1.3,1.5,1.3,2.6
        c0,2.8-1.5,7.7-2.6,7.7c-0.2,0-0.6-0.1-1.2-0.2c-0.6-0.1-1.4-0.2-2.3-0.2h-11.2c-1.8,0-1.8-1.2-1.8-1.7c0-2.2,1.8-0.4,2-4.7
        c0.3-7.4,0.4-6.7,0.1-14c-0.2-6.2-2.3-3-2.3-5.9c0-2.5,2.3-2.1,3.4-2.1H324.9z"/>
    <path class="st5" d="M341.9,259.9c-5,0-8.4-5.2-8.4-12.1c0-6.6,4.6-15.5,6.3-15.5c0.6-0.1,3.9,1.2,3.9,2.4c0,0.5-0.5,1.3-0.7,1.6
        c-1,1.7-1.9,3.6-1.9,4.9c0,0.4,0.2,0.8,0.4,0.8c0.5,0,1.7-1.1,3.2-1.1c2.9,0,5.2,3.7,5.2,8C349.9,254.3,346.9,259.9,341.9,259.9z
         M341.5,246.7c-1,0-1.3,1.3-1.3,2.5c0,1.7,1.2,5.1,2.5,5.1c0.8,0,1.3-0.7,1.3-1.9C343.9,250.5,343.1,246.7,341.5,246.7z"/>
    <path class="st5" d="M364.8,250c0,1.2-0.1,1.6,0.8,1.6c1,0,1,0.1,1,1.7v3.2c0,0.9,0,1.6-0.7,1.7c-0.8,0.1-0.8,0.2-0.8,2.4
        c0,1.8,0.2,2.6-1.1,2.6h-4.1c-1.3,0-1.1-0.3-1.1-2.4c0-2.1,0.1-2.6-1.3-2.6h-4.8c-1.4,0-2.1-0.3-2.1-2.7c0-3,0.4-3.9,2.8-8.3
        l6.3-10.8c1.1-1.6,2.4-2.6,3.9-2.6c1.2,0,1.3,1.3,1.3,2.7V250z M357,252.2c1.9,0,1.9,0.1,1.9-2.6c0-1.7,0.4-5.8-0.7-5.6
        c-0.5,0.1-0.9,0.6-1.2,1.3c-0.5,1-2.9,4.7-2.9,6c0,1,1.6,0.9,2,0.9H357z"/>
</g>
<path class="st2" d="M264.7,35.9h-27.1c-1.7,0-3.1-1.4-3.1-3.1V14c0-1.7,1.4-3.1,3.1-3.1h27.1c1.7,0,3.1,1.4,3.1,3.1v18.8
    C267.9,34.5,266.5,35.9,264.7,35.9z M242.4,14.1c-2.3,0-4.2,1.9-4.2,4.2c0,2.3,1.9,4.2,4.2,4.2c2.3,0,4.2-1.9,4.2-4.2
    C246.5,16,244.6,14.1,242.4,14.1z M238.8,33.7h28.5v-8.3l-6.5-6.5c-0.3-0.3-0.9-0.3-1.3,0L249.5,29l-4.1-4.1c-0.3-0.3-0.9-0.3-1.3,0
    l-5.3,5.3V33.7z"/>
<g>
    <path class="st2" d="M227.5,46.6c0-0.6,0-1.4-0.1-2c-0.3-1.2-1.8-0.7-1.8-1.4c0-0.5,1.1-0.7,1.8-0.7c0.6,0,4.9,0.1,6.9,0.1
        c0.5,0,5.3-0.1,5.6-0.1c0.9,0,1.9,1.1,1.9,2.1c0,0.5-0.4,0.9-1.3,0.9c-1.7,0-0.8-1.4-5.4-1.4c-1.5,0-2.1-0.1-2.1,1.9
        c0,0.2,0,0.5,1.4,0.5c1.8,0,0.7-1.3,2.4-1.3c1.4,0,1.5,1.5,1.5,2c0,0.6-0.1,2.3-1.8,2.3c-1.5,0,0-1.5-2.5-1.5
        c-1.1,0-0.9,0.1-0.9,1.5c-0.1,2,2.3,0.9,2.3,1.9c0,0.3,0.2,0.9-5.6,0.9c-3.8,0-4.5-0.3-4.5-0.9c0-0.8,1.3-0.4,1.8-1.1
        c0.2-0.4,0.3-1.4,0.3-1.8V46.6z"/>
    <path class="st2" d="M244.1,46.7c0-1.7-0.2-2.1-0.5-2.3c-0.6-0.4-1.5-0.4-1.5-1c0-1,4.9-1,5.4-1c1.4,0,4.4,0,4.4,1
        c0,0.5-0.9,0.5-1.5,0.8c-0.5,0.3-0.5,1.5-0.5,2.5V48c0,2.4,0.3,2.4,0.8,2.6c0.6,0.2,1.2,0.3,1.2,0.7c0,0.4-0.2,1-5.5,1
        c-1,0-4,0-4-0.9c0-0.4,0.8-0.5,1.2-0.8c0.3-0.2,0.5-0.7,0.5-2.6V46.7z"/>
    <path class="st2" d="M254.9,52.2c-0.8,0-2,0-2-0.6c0-0.9,1.9-0.1,1.9-1.7c0-1,0-1.9,0-2.7c0-0.8-0.1-1.6-0.2-2.4
        c0-1.2-2.2-0.5-2.2-1.3c0-1,3.8-1.1,4.9-1.1c4.8,0,5,0.5,5,0.9c0,0.8-1.9,0.2-1.9,1.5v4.4c0,1,0.3,1.5,2,1.5c4.1,0,2.7-1.9,4.2-1.9
        c1.1,0,1.5,0.7,1.5,1.2c0,1.1-1.3,2.4-2.4,2.4c-0.4,0-0.8-0.1-1.2-0.1c-0.5-0.1-1-0.1-1.8-0.1H254.9z"/>
    <path class="st2" d="M278.4,42.6c3.2,0,3.7-0.3,4.1-0.3c1.4,0,1.9,1.3,1.9,1.9c0,0.5-0.3,1-1.2,1c-1.9,0-0.4-1.3-4.9-1.3
        c-2.7,0-2.4,0.3-2.4,1.9c0,0.8,0.1,0.8,1.5,0.8c1.8,0,0.5-1.5,2.2-1.5c1.4,0,1.5,1.5,1.5,2.1c0,0.6-0.2,2.2-1.6,2.2
        c-1.5,0,0-1.4-2.4-1.4c-1,0-1,0.5-1,1c0,2,0.2,1.9,2.8,1.9c4.9,0,3.5-1.9,5.5-1.9c0.8,0,1.2,0.5,1.2,0.9c0,0.9-1.3,2.6-2.3,2.6
        c-0.2,0-0.6,0-1.1-0.1c-0.5,0-1.2-0.1-2-0.1h-9.9c-1.6,0-1.6-0.4-1.6-0.6c0-0.8,1.6-0.2,1.8-1.6c0.3-2.5,0.3-2.2,0.1-4.7
        c-0.2-2.1-2-1-2-2c0-0.8,2-0.7,3-0.7H278.4z"/>
</g>
<path class="st2" d="M453.3,243.9l-3-1.6c0.3-1.5,0.3-3.1,0-4.6l3-1.6c0.4-0.2,0.5-0.6,0.4-0.9c-0.8-2.3-2.1-4.4-3.9-6.1
    c-0.3-0.3-0.7-0.3-1.1-0.1l-3,1.6c-1.3-1-2.7-1.8-4.3-2.3v-3.2c0-0.4-0.3-0.7-0.7-0.8c-2.6-0.5-5.3-0.5-7.8,0
    c-0.4,0.1-0.7,0.4-0.7,0.8v3.2c-1.6,0.5-3,1.3-4.3,2.3l-3-1.6c-0.3-0.2-0.8-0.1-1.1,0.1c-1.8,1.7-3.1,3.8-3.9,6.1
    c-0.1,0.4,0,0.7,0.4,0.9l3,1.6c-0.3,1.5-0.3,3.1,0,4.6l-3,1.6c-0.3,0.2-0.5,0.6-0.4,0.9c0.8,2.3,2.1,4.4,3.9,6.1
    c0.3,0.3,0.7,0.3,1.1,0.2l3-1.6c1.3,1,2.7,1.8,4.3,2.3v3.2c0,0.4,0.3,0.7,0.7,0.8c2.6,0.5,5.3,0.5,7.8,0c0.4-0.1,0.7-0.4,0.7-0.8
    v-3.2c1.6-0.5,3-1.3,4.3-2.3l3,1.6c0.3,0.2,0.8,0.1,1.1-0.2c1.8-1.7,3.1-3.8,3.9-6.1C453.8,244.5,453.7,244.1,453.3,243.9z
     M436.9,244c-2.2,0-3.9-1.8-3.9-3.9c0-2.2,1.8-3.9,3.9-3.9c2.2,0,3.9,1.8,3.9,3.9C440.8,242.2,439,244,436.9,244z"/>
<path class="st2" d="M249.6,497.9l-3.6-1c-0.4-0.1-0.6-0.5-0.5-0.9l8-27.7c0.1-0.4,0.5-0.6,0.9-0.5l3.6,1c0.4,0.1,0.6,0.5,0.5,0.9
    l-8,27.7C250.3,497.8,250,498,249.6,497.9z M242.9,491.3l2.6-2.7c0.3-0.3,0.3-0.7,0-1l-5.3-4.7l5.3-4.7c0.3-0.3,0.3-0.7,0-1
    l-2.6-2.7c-0.3-0.3-0.7-0.3-1,0l-8.5,8c-0.3,0.3-0.3,0.8,0,1l8.5,8C242.1,491.6,242.6,491.5,242.9,491.3z M262.2,491.3l8.5-8
    c0.3-0.3,0.3-0.8,0-1l-8.5-8c-0.3-0.3-0.7-0.3-1,0l-2.6,2.7c-0.3,0.3-0.3,0.7,0,1l5.3,4.7l-5.3,4.7c-0.3,0.3-0.3,0.7,0,1l2.6,2.7
    C261.4,491.5,261.9,491.6,262.2,491.3L262.2,491.3z"/>
<path class="st2" d="M72,251.4h1.4c0.4,0,0.7-0.3,0.7-0.7v-12.3c0-0.4-0.3-0.7-0.7-0.7H72c-0.4,0-0.7,0.3-0.7,0.7v12.3
    C71.3,251.1,71.6,251.4,72,251.4z M81.4,232.2h-4.7l-1.9-3.2c-0.5-0.8-1.4-1.3-2.4-1.3h-5.8c-1,0-1.9,0.5-2.3,1.3l-1.9,3.2h-4.7
    c-0.5,0-0.9,0.4-0.9,0.9v0.9c0,0.5,0.4,0.9,0.9,0.9h0.9v19.2c0,1.5,1.2,2.7,2.7,2.7l0,0h16.4c1.5,0,2.7-1.2,2.7-2.7l0,0v-19.2h0.9
    c0.5,0,0.9-0.4,0.9-0.9v-0.9C82.3,232.6,81.9,232.2,81.4,232.2z M66.5,230.5c0.1-0.1,0.2-0.2,0.3-0.2h5.4c0.1,0,0.2,0.1,0.3,0.2
    l1,1.7h-7.9L66.5,230.5z M77.7,254.1H61.3v-19.2h16.4V254.1z M65.6,251.4H67c0.4,0,0.7-0.3,0.7-0.7v-12.3c0-0.4-0.3-0.7-0.7-0.7
    h-1.4c-0.4,0-0.7,0.3-0.7,0.7v12.3C64.9,251.1,65.2,251.4,65.6,251.4z"/>
<g>
    <path class="st1" d="M332,21.7c0-5.1,4.1-8.7,9.3-8.7c6.6,0,9.2,5.8,9.2,8.9c0,5.2-4.6,8.6-9.5,8.6C335.9,30.6,332,26.9,332,21.7z
         M340.2,16.6c-1.3,0-2,1.4-2,2.6c0,2,1.4,7.8,4,7.8c1.5,0,2.1-1.3,2.1-2.6C344.3,22.2,343,16.6,340.2,16.6z"/>
    <path class="st1" d="M353.6,17c0-1.8-2.2-1-2.2-2.5c0-1,1.1-1.2,1.8-1.2c0.6,0,1.2,0,1.8,0c3.5,0,5.6-0.3,6.6-0.3
        c3.3,0,6.4,1.9,6.4,5.5c0,3.6-3,5.5-6.4,5.5c-0.7,0-1.4-0.1-2.1-0.1c-0.3,0-0.4,0.1-0.4,0.4v1.4c0.1,3,1.8,1.8,1.8,3.1
        c0,1.6-3.5,1.6-4.5,1.6c-1,0-4.6,0-4.6-1.6c0-1.3,1.8-0.5,1.8-2.5V17z M360,15.9c-0.9,0-0.9,0.3-0.9,0.8v3.6c0,0.5-0.2,1.1,1.1,1.1
        c1.6,0,2.2-1.2,2.2-2.7C362.4,17.1,361.7,15.9,360,15.9z"/>
    <path class="st1" d="M378.6,13.4c3.2,0,3.7-0.5,4.1-0.5c1.4,0,1.9,2.4,1.9,3.4c0,0.8-0.3,1.7-1.2,1.7c-1.9,0-0.4-2.3-4.9-2.3
        c-2.7,0-2.4,0.5-2.4,3.2c0,1.4,0.1,1.4,1.5,1.4c1.8,0,0.5-2.7,2.2-2.7c1.4,0,1.5,2.7,1.5,3.6c0,1-0.2,3.9-1.6,3.9
        c-1.5,0,0-2.5-2.4-2.5c-1,0-1,0.9-1,1.7c0,3.5,0.2,3.3,2.8,3.3c4.9,0,3.5-3.4,5.5-3.4c0.8,0,1.2,0.9,1.2,1.5c0,1.6-1.3,4.6-2.3,4.6
        c-0.2,0-0.6-0.1-1.1-0.1c-0.5,0-1.2-0.1-2-0.1h-9.9c-1.6,0-1.6-0.7-1.6-1c0-1.3,1.6-0.3,1.8-2.8c0.3-4.4,0.3-3.9,0.1-8.3
        c-0.2-3.7-2-1.8-2-3.5c0-1.5,2-1.2,3-1.2H378.6z"/>
    <path class="st1" d="M387.9,18.4c0-3.7-1.8-2.2-1.8-3.7c0-1.3,1.9-1.5,2.8-1.5c0.5,0,1,0,1.5,0.1c0.5,0,1,0.1,1.5,0.1
        c0.8,0,1.5,0,2.3-0.1c0.8,0,1.6-0.1,2.3-0.1c2.7,0,5.9,1.2,5.9,4.4c0,1.4-0.7,2.8-2,3.5c-0.2,0.1-0.4,0.2-0.4,0.5
        c0,0.4,0.3,0.5,0.6,0.6c1.7,0.6,2.4,1.7,2.8,4.3c0.3,2.2,1.8,0.9,1.8,2.4c0,0.9-1.1,1.9-3.8,1.9c-3.8,0-4.3-2.2-5.1-5.4
        c-0.3-1.1-0.7-2.2-2-2.2c-0.5,0-0.7,0.1-0.7,1.6c0,0.7,0,1.7,0.2,2.3c0.2,1.1,1.4,0.8,1.4,1.9c0,0.9-0.6,1.5-4.5,1.5
        c-1.2,0-4.6,0-4.6-1.8c0-1.2,1.8-0.4,1.8-3.5V18.4z M393.5,19.4c0,0.6-0.2,1.2,0.6,1.2c1.6,0,2.1-0.9,2.1-2.4
        c0-1.2-0.3-2.4-1.7-2.4c-0.9,0-0.9,0.6-0.9,1.3L393.5,19.4z"/>
    <path class="st1" d="M410.2,21.6c0.7-1.7,1.7-3.8,1.7-5.7c0-1.7,0.8-2.9,2.9-2.9c2.1,0,3.4,2.1,4.3,3.7c0.4,0.7,4,8,4.9,10
        c0.8,1.8,2.1,0.7,2.1,2.1c0,1.8-3.4,1.7-4.6,1.7c-3.4,0-5.5,0-5.5-1.5c0-1.2,1.5-0.7,1.5-1.6c0-1.1-0.6-1.2-4.5-1.2
        c-1.2,0-2,0-2,1.2c0,0.9,1.5,0.3,1.5,1.6c0,1.4-2.6,1.5-3.6,1.5c-3.4,0-3.7-0.6-3.7-1.4c0-1.1,1.3-0.8,2-1.7c0.5-0.6,1-1.8,1.4-2.6
        L410.2,21.6z M415.2,23.3c0.2,0,1,0,1-0.3c0-0.4-0.7-1.6-0.9-1.9c-0.2-0.4-0.6-1.3-1.2-1.3c-0.6,0-1,1.4-1.1,1.7
        c-0.1,0.3-0.5,1.2-0.5,1.5c0,0.4,0.6,0.3,0.9,0.3H415.2z"/>
    <path class="st5" d="M436.2,13.4c1,0,1.5-0.1,1.9-0.2c0.3-0.1,0.5-0.2,1-0.2c0.9,0,2.9,1.8,2.9,4.4c0,1.2-0.6,2-1.8,2
        c-2.1,0-2.1-2.8-3.3-2.8c-0.9,0-0.8,1.3-0.8,1.5v7.4c0,2.9,2.2,1.5,2.2,3.2c0,0.7-0.5,1.8-4.9,1.8c-1.2,0-5.7,0-5.7-1.8
        c0-1.3,1.5-0.8,2-1.7c0.2-0.5,0.3-1.9,0.4-2.5l0.2-5.3c0.1-2.5-0.4-2.5-0.7-2.5c-1.1,0-1.6,2.8-3.6,2.8c-0.9,0-1.5-0.9-1.5-1.7
        c0-2,1.7-4.7,3.1-4.7c0.2,0,0.4,0.1,0.9,0.2c0.5,0.1,1.1,0.2,2.1,0.2H436.2z"/>
    <path class="st5" d="M444.3,20.6c0-3-0.2-3.7-0.5-4.1c-0.6-0.7-1.5-0.8-1.5-1.7c0-1.7,4.9-1.7,5.4-1.7c1.4,0,4.4,0,4.4,1.7
        c0,0.9-0.9,0.8-1.5,1.4c-0.5,0.5-0.5,2.7-0.5,4.4V23c0,4.3,0.3,4.2,0.8,4.5c0.6,0.4,1.2,0.5,1.2,1.2c0,0.7-0.2,1.8-5.5,1.8
        c-1,0-4,0-4-1.6c0-0.8,0.8-0.9,1.2-1.3c0.3-0.3,0.5-1.2,0.5-4.6V20.6z"/>
    <path class="st5" d="M453,21.7c0-5.1,4.1-8.7,9.3-8.7c6.6,0,9.2,5.8,9.2,8.9c0,5.2-4.6,8.6-9.5,8.6C456.9,30.6,453,26.9,453,21.7z
         M461.2,16.6c-1.3,0-2,1.4-2,2.6c0,2,1.4,7.8,4,7.8c1.5,0,2.1-1.3,2.1-2.6C465.3,22.2,464,16.6,461.2,16.6z"/>
    <path class="st5" d="M485.2,19.2c0.3,0.2,1.1,0.9,1.5,0.9c0.6,0,0.6-1,0.6-1.4c0-0.6,0-1.6-0.2-2.2c-0.3-1-1.6-0.6-1.6-1.9
        c0-1.5,2.4-1.5,3.5-1.5c1.1,0,3.7-0.1,3.7,1.5c0,1.4-1.3,0.9-1.7,2c-0.3,0.9-0.3,2.4-0.3,3.3v6.2c0,1.1,0.1,4.4-1.5,4.4
        c-0.5,0-0.9-0.3-1.2-0.6l-7.4-6.6c-0.3-0.3-1-0.9-1.5-0.9c-0.7,0-0.8,1.6-0.8,2.1c0,0.7,0,1.6,0.2,2.2c0.4,1.5,1.6,1,1.6,2.1
        c0,1.6-2.5,1.8-3.6,1.8c-1.1,0-3.6-0.1-3.6-1.7c0-1.3,1.4-0.8,1.6-2.3c0.2-1,0.2-2.5,0.2-3.6c0-1.7,0-3.5-0.3-5.2
        c-0.4-2.4-2.1-1.5-2.1-2.9c0-1.7,3.2-1.6,4.3-1.6c1.5,0,1.8,0.1,2.8,1.1L485.2,19.2z"/>
</g>
</svg>
