<?xml version="1.0" encoding="utf-8"?>
<!-- Generator: Adobe Illustrator 16.0.0, SVG Export Plug-In . SVG Version: 6.00 Build 0)  -->
<!DOCTYPE svg PUBLIC "-//W3C//DTD SVG 1.1//EN" "http://www.w3.org/Graphics/SVG/1.1/DTD/svg11.dtd" [
	<!ENTITY ns_extend "http://ns.adobe.com/Extensibility/1.0/">
	<!ENTITY ns_ai "http://ns.adobe.com/AdobeIllustrator/10.0/">
	<!ENTITY ns_graphs "http://ns.adobe.com/Graphs/1.0/">
	<!ENTITY ns_vars "http://ns.adobe.com/Variables/1.0/">
	<!ENTITY ns_imrep "http://ns.adobe.com/ImageReplacement/1.0/">
	<!ENTITY ns_sfw "http://ns.adobe.com/SaveForWeb/1.0/">
	<!ENTITY ns_custom "http://ns.adobe.com/GenericCustomNamespace/1.0/">
	<!ENTITY ns_adobe_xpath "http://ns.adobe.com/XPath/1.0/">
]>
<svg version="1.1" id="Layer_1" xmlns:x="&ns_extend;" xmlns:i="&ns_ai;" xmlns:graph="&ns_graphs;"
	 xmlns="http://www.w3.org/2000/svg" xmlns:xlink="http://www.w3.org/1999/xlink" x="0px" y="0px" width="1400px" height="656px"
	 viewBox="0 0 1400 656" enable-background="new 0 0 1400 656" xml:space="preserve">
<metadata>
	<sfw  xmlns="&ns_sfw;">
		<slices></slices>
		<sliceSourceBounds  width="1400" height="656" y="-654.499" x="0" bottomLeftOrigin="true"></sliceSourceBounds>
	</sfw>
</metadata>
<g>
	<polyline fill="#F9F9FA" points="683.316,391.041 891.542,391.041 891.542,384.957 905.95,396.017 	"/>
	<polyline fill="#F9F9FA" points="905.947,395.463 697.722,395.463 697.722,401.546 683.319,390.488 	"/>
</g>
<rect x="972.515" y="531.217" fill="#288CCC" width="371.696" height="7.228"/>
<g>
	<path fill="#F4F4F4" d="M689.104,547.199c-2.631,0-5.787,3.023-5.787-56.724c0-78.713,5.471-75.844,7.258-75.844h27.236
		c18.613,0,21.453,13.063,21.453,23.266c0,17.52-11.989,27.725-11.989,32.654c0,5.582,16.938,18.487,16.938,45.894
		c0,15.613-6.206,30.754-23.452,30.754H689.104z M714.762,460.677c3.049-3.344,7.466-11.156,7.466-17.682
		c0-7.657-4.417-9.561-8.415-9.561c-10.406,0-15.143,6.851-15.143,31.711c0,3.183-0.207,7.324,2.734,7.324
		c1.265,0,3.996-1.75,5.681-3.502L714.762,460.677z M703.822,490.957c-2.84,2.385-4.52,3.342-4.52,8.604
		c0,24.215,3.995,27.25,12.613,27.25c7.577,0,15.254-4.463,15.254-16.887c0-11.318-9.258-27.261-12.094-27.261
		c-1.373,0-3.263,1.76-4.416,2.715L703.822,490.957z"/>
	<path fill="#F4F4F4" d="M798.153,547.199c-0.947,0-3.998,0.475-3.998-1.916c0-4.465,8.1-20.391,8.1-38.555
		c0-7.168-4.522-9.881-9.26-9.881c-9.566,0-24.816,2.547-24.816,20.711c0,12.592,6.831,26.133,6.831,28.521
		c0,0.955-0.632,1.119-1.99,1.119h-15.044c-5.36,0-6.834-14.344-6.834-35.051c0-68.204,31.234-99.913,35.861-99.913
		c3.467,0,30.598,22.781,30.598,96.726c0,42.541-4.519,38.242-7.676,38.242h-11.771V547.199z M770.495,476.447
		c0,1.924,0.738,3.031,1.999,3.031c1.888,0,12.091-4.139,21.345-4.139c3.686,0,5.367-0.8,5.367-5.265
		c0-9.885-7.783-30.595-11.779-30.595C781.747,439.483,770.495,464.822,770.495,476.447z"/>
	<path fill="#F4F4F4" d="M854.734,433.742c-5.262,0-11.995,3.985-11.995,13.229c0,11.472,10.414,15.936,16.196,18.959
		c22.085,11.158,26.604,27.258,26.604,42.386c0,18.486-8.73,41.27-30.915,41.27c-14.933,0-30.083-12.115-30.083-37.443
		c0-13.541,5.369-21.507,6.418-21.507c1.785,0,0,32.339,22.612,32.339c7.99,0,14.929-5.256,14.929-15.137
		c0-11.627-9.466-16.411-15.563-19.281c-23.028-10.829-25.552-26.608-25.552-40.156c0-13.384,5.992-36.166,27.346-36.166
		c15.248,0,26.074,12.272,26.074,16.887c0,4.466-5.467,18.968-8.41,18.968C869.772,448.09,865.671,433.742,854.734,433.742z"/>
	<path fill="#F4F4F4" d="M898.688,547.199c-5.572,0.32-3.893-5.256-4.42-37.598c0-21.359,5.789-94.967,8.834-94.967h41.439
		c1.258,0,5.049-0.481,5.049,2.709c0,1.266-6.729,23.574-8.102,23.574c-1.783,0-4.938-7.483-15.242-7.483
		c-7.262,0-14.939,6.525-14.939,21.825c0,3.342,0.424,9.076,3.371,9.076c3.365,0,10.832-7.485,19.66-7.485
		c1.268,0,4.736,0.633,4.736,3.34c0,0.165-5.893,26.144-7.15,26.144c-1.055,0-5.055-3.192-9.152-3.192
		c-5.365,0-13.15,5.897-13.15,21.683c0,12.734,4.42,21.986,13.256,21.986c10.41,0,16.828-10.523,19.352-10.523
		c1.576,0,8.621,26.932,8.621,28.523c0,3.027-2.631,2.393-3.889,2.393h-48.273V547.199z"/>
</g>
<text transform="matrix(0.66 0 0 1 962.668 517.9277)" fill="#F4F2F2" font-family="'Vibrocentric-Regular'" font-size="141.1234">UPDATE</text>
<g>
	<path fill="#090D0F" d="M926.403,471.092c10.522,0,19.053,12.612,19.053,28.175c0,15.557-8.53,28.176-19.053,28.176
		c-10.523,0-19.055-12.619-19.055-28.176C907.349,483.704,915.88,471.092,926.403,471.092z"/>
	<g>
		<path fill="#F9F9FA" d="M923.669,487.337c0,0.256-0.95,4.178-1.287,4.178c-0.426,0-0.835-1.129-2.082-1.129
			c-1.966,0-3.848,3.705-3.848,6.016c0,0.301,0.156,0.733,0.385,0.733c0.389,0,1.587-1.461,3.263-1.461
			c2.935,0,4.521,4.609,4.521,8.458c0,7.021-3.345,9.861-5.746,9.861c-3.254,0-5.878-3.91-5.878-12.77
			c0-9.634,3.165-15.359,7.938-15.359C921.411,485.859,923.669,486.165,923.669,487.337z M921.571,504.063
			c0-2.148-0.816-4.114-2.45-4.114c-1.587,0-2.823,1.766-2.823,4.048c0,2.11,1.08,4.404,2.601,4.404
			C920.601,508.4,921.571,506.367,921.571,504.063z"/>
		<path fill="#F9F9FA" d="M932.282,513.99c-0.542,0-0.7-0.261-0.678-1.266c0-2.012,0.387-3.847,0.387-6.125
			c0-0.733-0.405-0.826-0.815-0.826c-1.585,0-3.622,1.097-4.187,1.097c-1.043,0-1.129-1.673-1.129-3.205
			c0-6.233,5.332-17.305,6.667-17.305h2.486c0.183,0,0.8,0,0.8,0.635c0,0.598-6.452,8.535-6.452,14.318
			c0,0.397,0.11,0.507,0.495,0.507c0.501,0,2.339-0.542,2.558-2.047c0.905-5.815,2.827-8.188,3.584-8.188
			c0.125,0,0.219,0.16,0.219,0.338c0,0.293-0.724,2.804-0.724,6.016c0,2.642,0.32,2.815,1.769,2.815
			c0.813,0,0.858-0.476,0.858,3.768c0,0.95-0.045,1.308-0.291,1.308c-0.434,0-1.133-0.332-1.674-0.332c-0.797,0-1.11,0.3-1.11,3.331
			c0,1.509,0.084,2.455,0.084,4.328C935.124,513.729,933.189,513.99,932.282,513.99z"/>
	</g>
</g>
</svg>
