<?xml version="1.0" encoding="utf-8"?>
<!-- Generator: Adobe Illustrator 16.0.0, SVG Export Plug-In . SVG Version: 6.00 Build 0)  -->
<!DOCTYPE svg PUBLIC "-//W3C//DTD SVG 1.1//EN" "http://www.w3.org/Graphics/SVG/1.1/DTD/svg11.dtd">
<svg version="1.1" id="Layer_1" focusable="false" xmlns="http://www.w3.org/2000/svg" xmlns:xlink="http://www.w3.org/1999/xlink"
	 x="0px" y="0px" width="130.621px" height="100px" viewBox="0 0 130.621 100" enable-background="new 0 0 130.621 100"
	 xml:space="preserve">
<path fill="#1F2659" d="M105.935,87.5h-81.25c-5.178,0-9.375-4.197-9.375-9.375v-56.25c0-5.178,4.197-9.375,9.375-9.375h81.25
	c5.178,0,9.375,4.197,9.375,9.375v56.25C115.31,83.303,111.113,87.5,105.935,87.5z M37.185,23.438
	c-6.041,0-10.938,4.897-10.938,10.938s4.897,10.938,10.938,10.938s10.938-4.897,10.938-10.938S43.226,23.438,37.185,23.438z
	 M27.81,75h75V53.125L85.717,36.032c-0.915-0.915-2.399-0.915-3.314,0L55.935,62.5L45.092,51.657c-0.915-0.915-2.399-0.915-3.314,0
	L27.81,65.625V75z"/>
</svg>
